<?xml version="1.0" encoding="UTF-8"?>
<svg width="28px" height="28px" viewBox="0 0 28 28" version="1.1" xmlns="http://www.w3.org/2000/svg" xmlns:xlink="http://www.w3.org/1999/xlink">
    <!-- Generator: Sketch 47.1 (45422) - http://www.bohemiancoding.com/sketch -->
    <title>01-BasicParameters</title>
    <desc>Created with Sketch.</desc>
    <defs></defs>
    <g id="05-CONSULTER-DONNEES-3D" stroke="none" stroke-width="1" fill="none" fill-rule="evenodd">
        <g id="Select-a-node-+-option-menu-Copy-12" transform="translate(-1403.000000, -371.000000)">
            <g id="01-BasicParameters" transform="translate(1403.000000, 371.000000)">
                <circle id="Oval-3" fill="#296BB3" cx="14" cy="14" r="14"></circle>
                <path d="M18.7580427,7.516526 C18.7580427,7.516526 18.7580427,7.516526 18.7580427,7.516526 L17.201702,9.07273278 L17.6394228,10.3614665 L18.9282675,10.7991497 L20.4846082,9.24294289 C20.7034686,9.80220471 20.7521043,10.410098 20.6305151,10.9936755 C20.508926,11.5772531 20.2171121,12.1121991 19.8037091,12.5255666 C19.3659883,12.938934 18.855314,13.2307228 18.2716863,13.3523014 C17.7123763,13.4738801 17.1530664,13.4495643 16.6423921,13.2550385 L16.4964851,13.206407 L9.39568065,20.3309162 C9.15250242,20.5497578 8.86068854,20.6956522 8.520239,20.6956522 C8.2041073,20.6956522 7.88797559,20.5497578 7.66911518,20.3309162 C7.42593694,20.0877589 7.30434783,19.7959701 7.30434783,19.4555499 C7.30434783,19.1394454 7.42593694,18.8476566 7.64479736,18.6044993 L14.7699197,11.4799901 L14.721284,11.3584115 C14.5510593,10.8234654 14.5267414,10.2642036 14.6240127,9.72925751 C14.7456018,9.14567997 15.0374157,8.61073389 15.4751365,8.19736646 C15.8885395,7.78399904 16.4235317,7.49221027 17.0071594,7.37063161 C17.5907872,7.24905296 18.174415,7.29768442 18.7337249,7.49221027 L18.7337249,7.516526 L18.7580427,7.516526 Z" id="Shape" fill="#FFFFFF"></path>
            </g>
        </g>
    </g>
</svg>