<?xml version="1.0" encoding="UTF-8"?>
<svg width="28px" height="28px" viewBox="0 0 28 28" version="1.1" xmlns="http://www.w3.org/2000/svg" xmlns:xlink="http://www.w3.org/1999/xlink">
    <!-- Generator: Sketch 47.1 (45422) - http://www.bohemiancoding.com/sketch -->
    <title>01b-FullScreen</title>
    <desc>Created with Sketch.</desc>
    <defs></defs>
    <g id="05-CONSULTER-DONNEES-3D" stroke="none" stroke-width="1" fill="none" fill-rule="evenodd">
        <g id="Select-a-node-+-option-menu-Copy-12" transform="translate(-1362.000000, -371.000000)">
            <g id="Basics" transform="translate(1321.000000, 371.000000)">
                <g id="01b-FullScreen" transform="translate(41.000000, 0.000000)">
                    <circle id="Oval-3" fill="#4A90E2" cx="14" cy="14" r="14"></circle>
                    <g id="Group" transform="translate(7.000000, 7.000000)" fill-rule="nonzero" fill="#FFFFFF">
                        <path d="M13.8895387,0.342105263 L10.4335608,0.342105263 L10.4335608,0.342105263 C10.2272165,0.342105263 10.0599415,0.509380292 10.0599415,0.715724496 L10.0599415,0.715724496 L10.0599415,0.715724496 C10.0599415,0.922068701 10.2272165,1.08934373 10.4335608,1.08934373 L12.9928525,1.08934373 L8.47205978,5.61013645 L8.47205978,5.61013645 C8.32761884,5.7545774 8.32761884,5.98876244 8.47205978,6.13320338 L8.47205978,6.13320338 L8.47205978,6.13320338 C8.61650072,6.27764432 8.85068576,6.27764432 8.99512671,6.13320338 L13.5159194,1.61241066 L13.5159194,4.1717024 L13.5159194,4.1717024 C13.5159194,4.37804661 13.6831945,4.54532164 13.8895387,4.54532164 L13.8895387,4.54532164 L13.8895387,4.54532164 C14.0958829,4.54532164 14.2631579,4.37804661 14.2631579,4.1717024 L14.2631579,0.715724496 C14.2631579,0.509380292 14.0958829,0.342105263 13.8895387,0.342105263 Z" id="Shape"></path>
                        <path d="M4.54532164,13.8895387 L4.54532164,13.8895387 L4.54532164,13.8895387 C4.54532164,13.6831945 4.37804661,13.5159194 4.1717024,13.5159194 L1.61241066,13.5159194 L6.13320338,8.99512671 L6.13320338,8.99512671 C6.27764432,8.85068576 6.27764432,8.61650072 6.13320338,8.47205978 L6.13320338,8.47205978 L6.13320338,8.47205978 C5.98876244,8.32761884 5.7545774,8.32761884 5.61013645,8.47205978 L1.08934373,12.9928525 L1.08934373,10.4335608 L1.08934373,10.4335608 C1.08934373,10.2272165 0.922068701,10.0599415 0.715724496,10.0599415 L0.715724496,10.0599415 L0.715724496,10.0599415 C0.509380292,10.0599415 0.342105263,10.2272165 0.342105263,10.4335608 L0.342105263,13.8895387 C0.342105263,14.0958829 0.509380292,14.2631579 0.715724496,14.2631579 L4.1717024,14.2631579 L4.1717024,14.2631579 C4.37804661,14.2631579 4.54532164,14.0958829 4.54532164,13.8895387 Z" id="Shape"></path>
                    </g>
                </g>
            </g>
        </g>
    </g>
</svg>