<?xml version="1.0" encoding="UTF-8"?>
<svg width="28px" height="28px" viewBox="0 0 28 28" version="1.1" xmlns="http://www.w3.org/2000/svg" xmlns:xlink="http://www.w3.org/1999/xlink">
    <!-- Generator: Sketch 47.1 (45422) - http://www.bohemiancoding.com/sketch -->
    <title>02-3DInformation</title>
    <desc>Created with Sketch.</desc>
    <defs></defs>
    <g id="05-CONSULTER-DONNEES-3D" stroke="none" stroke-width="1" fill="none" fill-rule="evenodd">
        <g id="Select-a-node-+-option-menu-Copy-12" transform="translate(-1403.000000, -417.000000)">
            <g id="02-3DInformation" transform="translate(1403.000000, 417.000000)">
                <circle id="Oval-3" fill="#296BB3" cx="14" cy="14" r="14"></circle>
                <path d="M10.7211594,13.5621512 L10.3424155,13.506347 L12.3876329,11.5420372 L12.3876329,10.3589869 L7.08521739,10.3589869 L7.09603865,11.932667 L10.0177778,11.932667 L8.24309179,13.6849206 L8.24309179,14.778684 L9.52,14.778684 C10.364058,14.778684 10.829372,15.1023487 10.829372,15.7273564 C10.829372,16.3412032 10.364058,16.6983504 9.53082126,16.6983504 C8.8057971,16.6983504 8.0915942,16.3635249 7.49642512,15.7273564 L6.69565217,17.3010364 C7.43149758,17.8814006 8.57855072,18.2608696 9.68231884,18.2608696 C11.5652174,18.2608696 12.7663768,17.2117496 12.7663768,15.7050346 C12.7663768,14.5108236 11.9223188,13.7518857 10.7211594,13.5621512 Z M17.2680193,10.3478261 C19.6703382,10.3478261 21.3043478,11.932667 21.3043478,14.254124 C21.3043478,16.5867419 19.6486957,18.1715828 17.1922705,18.1715828 L14,18.1715828 L14,10.3478261 L17.2680193,10.3478261 Z M17.3221256,16.5197768 C18.4691787,16.5197768 19.2807729,15.6157478 19.2807729,14.2764457 C19.2807729,12.9259827 18.4258937,12.0107929 17.2247343,12.0107929 L15.9802899,12.0107929 L15.9802899,16.5197768 L17.3221256,16.5197768 Z" id="3D" fill="#FFFFFF"></path>
            </g>
        </g>
    </g>
</svg>