<?xml version="1.0" encoding="UTF-8"?>
<svg width="28px" height="28px" viewBox="0 0 28 28" version="1.1" xmlns="http://www.w3.org/2000/svg" xmlns:xlink="http://www.w3.org/1999/xlink">
    <!-- Generator: Sketch 47.1 (45422) - http://www.bohemiancoding.com/sketch -->
    <title>02a-ShowMark</title>
    <desc>Created with Sketch.</desc>
    <defs></defs>
    <g id="05-CONSULTER-DONNEES-3D" stroke="none" stroke-width="1" fill="none" fill-rule="evenodd">
        <g id="Select-a-node-+-option-menu-Copy-12" transform="translate(-1239.000000, -417.000000)">
            <g id="3D" transform="translate(1239.000000, 417.000000)">
                <g id="02a-ShowMark">
                    <circle id="Oval-3" fill="#4A90E2" cx="14" cy="14" r="14"></circle>
                    <path d="M13.8201088,15.0960884 L6.98002166,18.6483093 L7.68545807,16.1881602 L7.68545807,16.1881602 C7.74233424,15.9898094 7.62764641,15.7829071 7.42929563,15.7260309 L7.42929563,15.7260309 C7.23094485,15.6691547 7.02404253,15.7838426 6.96716636,15.9821933 L6.01456974,19.3042925 C5.95769357,19.5026433 6.0723814,19.7095456 6.27073218,19.7664218 L9.59283137,20.7190184 C9.79118215,20.7758946 9.99808447,20.6612068 10.0549606,20.462856 L10.0549606,20.462856 C10.1118368,20.2645052 9.99714898,20.0576029 9.7987982,20.0007267 L7.33864908,19.2952903 L14.1935633,15.7353694 L20.9710178,19.2952903 L18.5108687,20.0007267 C18.3125179,20.0576029 18.1978301,20.2645052 18.2547063,20.462856 C18.3115824,20.6612068 18.5184848,20.7758946 18.7168355,20.7190184 L18.7168355,20.7190184 L22.0389347,19.7664218 C22.2372855,19.7095456 22.3519733,19.5026433 22.2950972,19.3042925 L21.3425006,15.9821933 C21.2856244,15.7838426 21.0787221,15.6691547 20.8803713,15.7260309 C20.6820205,15.7829071 20.5673327,15.9898094 20.6242088,16.1881602 L21.3296453,18.6483093 L14.5596764,15.0923203 L14.5596764,7.27166473 L16.3694838,9.08147213 C16.5153277,9.22731609 16.7517875,9.22731609 16.8976315,9.08147213 C17.0434754,8.93562818 17.0434754,8.69916841 16.8976315,8.55332446 L14.4537712,6.10946419 C14.3078638,5.9635568 14.0713526,5.96350538 13.9255087,6.10934933 L11.4829405,8.55191747 L11.4829405,8.55191747 C11.3370331,8.69782486 11.3370331,8.93438747 11.4829405,9.08029486 C11.6288479,9.22620224 11.8654105,9.22620224 12.0113179,9.08029486 L13.8201088,7.27150393 L13.8201088,15.0960884 Z" id="Combined-Shape" fill="#FFFFFF" fill-rule="nonzero"></path>
                </g>
            </g>
        </g>
    </g>
</svg>