<?xml version="1.0" encoding="UTF-8"?>
<svg width="28px" height="28px" viewBox="0 0 28 28" version="1.1" xmlns="http://www.w3.org/2000/svg" xmlns:xlink="http://www.w3.org/1999/xlink">
    <!-- Generator: Sketch 47.1 (45422) - http://www.bohemiancoding.com/sketch -->
    <title>03-Annotations</title>
    <desc>Created with Sketch.</desc>
    <defs></defs>
    <g id="05-CONSULTER-DONNEES-3D" stroke="none" stroke-width="1" fill="none" fill-rule="evenodd">
        <g id="Select-a-node-+-option-menu-Copy-12" transform="translate(-1403.000000, -463.000000)">
            <g id="03-Annotations" transform="translate(1403.000000, 463.000000)">
                <circle id="Oval-3" fill="#296BB3" cx="14" cy="14" r="14"></circle>
                <path d="M13.9742475,7.91304348 C10.2916388,7.91304348 7.30434783,10.6392479 7.30434783,14 L7.30434783,20.0869565 L14.0257525,20.0869565 C17.7083612,20.0869565 20.6956522,17.3607521 20.6956522,14 C20.6956522,10.7092832 17.8046756,7.91304348 13.9742475,7.91304348 Z M15.2173913,16.4347826 L10.3478261,16.4347826 L10.3478261,15.826087 L15.2173913,15.826087 L15.2173913,16.4347826 Z M18.2608696,14.6086957 L10.3478261,14.6086957 L10.3478261,14 L18.2608696,14 L18.2608696,14.6086957 Z M18.2608696,13.3913043 L10.3478261,13.3913043 L10.3478261,12.7826087 L18.2608696,12.7826087 L18.2608696,13.3913043 Z" id="Shape" fill="#FFFFFF" fill-rule="nonzero"></path>
            </g>
        </g>
    </g>
</svg>