<?xml version="1.0" encoding="utf-8"?>
<!-- Generator: Adobe Illustrator 16.0.0, SVG Export Plug-In . SVG Version: 6.00 Build 0)  -->
<!DOCTYPE svg PUBLIC "-//W3C//DTD SVG 1.1//EN" "http://www.w3.org/Graphics/SVG/1.1/DTD/svg11.dtd">
<svg version="1.1" id="Calque_1" xmlns="http://www.w3.org/2000/svg" xmlns:xlink="http://www.w3.org/1999/xlink" x="0px" y="0px"
	 width="28px" height="28px" viewBox="0 0 28 28" enable-background="new 0 0 28 28" xml:space="preserve">
<title>03a-ShowAnnotes</title>
<desc>Created with Sketch.</desc>
<g id="_x30_5-CONSULTER-DONNEES-3D">
	<g id="Select-a-node-_x2B_-option-menu-Copy-12" transform="translate(-1280.000000, -463.000000)">
		<g id="Annotate" transform="translate(1280.000000, 463.000000)">
			<g id="_x30_3a-ShowAnnotes">
				<circle id="Oval-3" fill="#4A90E2" cx="14" cy="14" r="14"/>
				<path id="Shape" fill="#FFFFFF" d="M20.426,14.231C18.991,16.21,16.648,17.5,14,17.5c-2.648,0-4.991-1.29-6.425-3.269
					c-0.1-0.138-0.1-0.324,0-0.462C9.009,11.79,11.352,10.5,14,10.5c2.648,0,4.991,1.29,6.426,3.269
					C20.525,13.907,20.525,14.093,20.426,14.231z M16.5,14c0-1.381-1.119-2.5-2.5-2.5s-2.5,1.119-2.5,2.5s1.119,2.5,2.5,2.5
					S16.5,15.381,16.5,14z M15,13.964c0,0.532-0.447,0.964-1,0.964c-0.552,0-1-0.432-1-0.964S13.448,13,14,13
					C14.553,13,15,13.432,15,13.964z"/>
			</g>
		</g>
	</g>
</g>
<line fill="none" stroke="#FFFFFF" stroke-width="0.4" stroke-linecap="round" stroke-linejoin="round" stroke-miterlimit="10" x1="17.219" y1="8.658" x2="10.781" y2="19.342"/>
</svg>
