<?xml version="1.0" encoding="utf-8"?>
<!-- Generator: Adobe Illustrator 16.0.0, SVG Export Plug-In . SVG Version: 6.00 Build 0)  -->
<!DOCTYPE svg PUBLIC "-//W3C//DTD SVG 1.1//EN" "http://www.w3.org/Graphics/SVG/1.1/DTD/svg11.dtd">
<svg version="1.1" id="Calque_1" xmlns="http://www.w3.org/2000/svg" xmlns:xlink="http://www.w3.org/1999/xlink" x="0px" y="0px"
	 width="40px" height="40px" viewBox="0 0 40 40" enable-background="new 0 0 40 40" xml:space="preserve">
<g id="Select-a-node-_x2B_-option-menu-Copy-12" transform="translate(-1321.000000, -417.000000)">
	<g id="_x33_D" transform="translate(1239.000000, 417.000000)">
		<g id="_x30_2c-Wireframe" transform="translate(82.000000, 0.000000)">
			<ellipse id="Oval-3" fill="#FFFFFF" cx="20.166" cy="20.102" rx="19.834" ry="19.898"/>
		</g>
	</g>
</g>
<g>
	<path fill="#4A90E2" d="M36.271,27.212V27H3.71c-0.245,0-0.443-0.197-0.443-0.443v-6.465c0-0.245,0.199-0.442,0.443-0.442h32.562
		c0.244,0,0.441,0.198,0.443,0.442v6.465C36.713,26.803,36.516,27,36.271,27V27.212v0.212c0.479,0,0.867-0.389,0.867-0.867v-6.465
		c0-0.479-0.389-0.866-0.867-0.866H3.71c-0.479,0-0.866,0.387-0.866,0.866v6.465c0,0.479,0.388,0.867,0.866,0.867h32.562V27.212z"/>
	<polyline fill="#4A90E2" points="6.019,19.402 6.019,21.803 6.442,21.803 6.442,19.402 	"/>
	<polyline fill="#4A90E2" points="12.793,19.402 12.793,21.803 13.217,21.803 13.217,19.402 	"/>
	<polyline fill="#4A90E2" points="19.568,19.402 19.568,21.803 19.991,21.803 19.991,19.402 	"/>
	<polyline fill="#4A90E2" points="26.342,19.402 26.342,21.803 26.766,21.803 26.766,19.402 	"/>
	<polyline fill="#4A90E2" points="33.115,19.402 33.115,21.803 33.539,21.803 33.539,19.402 	"/>
	<polyline fill="#4A90E2" points="9.406,19.402 9.406,23.496 9.83,23.496 9.83,19.402 	"/>
	<polyline fill="#4A90E2" points="16.18,19.402 16.18,23.496 16.604,23.496 16.604,19.402 	"/>
	<polyline fill="#4A90E2" points="22.955,19.402 22.955,23.496 23.377,23.496 23.377,19.402 	"/>
	<polyline fill="#4A90E2" points="29.729,19.402 29.729,23.496 30.152,23.496 30.152,19.402 	"/>
	<polyline fill="#4A90E2" points="2.843,13.615 2.843,17.442 3.269,17.442 3.269,13.615 	"/>
	<polyline fill="#4A90E2" points="36.713,13.615 36.713,17.442 37.139,17.442 37.139,13.615 	"/>
	<polyline fill="#4A90E2" points="3.126,15.741 4.119,15.741 4.119,15.316 3.126,15.316 	"/>
	<path fill="#4A90E2" d="M35.295,15.741h0.568v-0.425h-0.568V15.741z M32.746,15.741h2.125v-0.425h-2.125V15.741z M30.193,15.741
		h2.127v-0.425h-2.127V15.741z M27.643,15.741h2.125v-0.425h-2.125V15.741z M25.092,15.741h2.127v-0.425h-2.127V15.741z
		 M22.541,15.741h2.127v-0.425h-2.127V15.741z M19.991,15.741h2.125v-0.425h-2.125V15.741z M17.44,15.741h2.125v-0.425H17.44V15.741
		z M14.889,15.741h2.125v-0.425h-2.125V15.741z M12.338,15.741h2.125v-0.425h-2.125V15.741z M9.787,15.741h2.125v-0.425H9.787
		V15.741z M7.236,15.741h2.125v-0.425H7.236V15.741z M4.686,15.741h2.125v-0.425H4.686V15.741z"/>
	<polyline fill="#4A90E2" points="36.004,15.741 37.139,15.741 37.139,15.316 36.004,15.316 	"/>
	<polyline fill="#4A90E2" points="3.207,15.679 4.419,14.466 4.119,14.165 2.905,15.378 	"/>
	<polyline fill="#4A90E2" points="2.906,15.679 4.106,16.879 4.406,16.579 3.207,15.378 	"/>
	<polyline fill="#4A90E2" points="36.854,15.365 35.641,16.578 35.941,16.879 37.156,15.666 	"/>
	<polyline fill="#4A90E2" points="37.154,15.365 35.955,14.165 35.654,14.466 36.854,15.666 	"/>
</g>
<rect fill="none" width="40" height="40"/>
</svg>
