<?xml version="1.0" encoding="utf-8"?>
<!-- Generator: Adobe Illustrator 16.0.0, SVG Export Plug-In . SVG Version: 6.00 Build 0)  -->
<!DOCTYPE svg PUBLIC "-//W3C//DTD SVG 1.1//EN" "http://www.w3.org/Graphics/SVG/1.1/DTD/svg11.dtd">
<svg version="1.1" id="Calque_1" xmlns="http://www.w3.org/2000/svg" xmlns:xlink="http://www.w3.org/1999/xlink" x="0px" y="0px"
	 width="28px" height="28px" viewBox="0 0 28 28" enable-background="new 0 0 28 28" xml:space="preserve">
<g id="Select-a-node-_x2B_-option-menu-Copy-12" transform="translate(-1321.000000, -417.000000)">
	<g id="_x33_D" transform="translate(1239.000000, 417.000000)">
		<g id="_x30_2c-Wireframe" transform="translate(82.000000, 0.000000)">
			<circle id="Oval-3" fill="#4A90E2" cx="14" cy="14" r="14"/>
		</g>
	</g>
</g>
<g>
	<path fill="#FFFFFF" d="M23.641,17.731v-0.126H4.348c-0.145,0-0.262-0.117-0.262-0.264v-3.829c0-0.144,0.117-0.262,0.262-0.262
		h19.292c0.145,0,0.262,0.118,0.264,0.262v3.829c-0.002,0.146-0.119,0.264-0.264,0.264V17.731v0.126
		c0.283,0,0.514-0.232,0.514-0.516v-3.829c0-0.284-0.23-0.513-0.514-0.513H4.348c-0.283,0-0.513,0.229-0.513,0.513v3.829
		c0,0.283,0.229,0.516,0.513,0.516h19.292V17.731z"/>
	<polyline fill="#FFFFFF" points="5.717,13.104 5.717,14.526 5.968,14.526 5.968,13.104 	"/>
	<polyline fill="#FFFFFF" points="9.73,13.104 9.73,14.526 9.981,14.526 9.981,13.104 	"/>
	<polyline fill="#FFFFFF" points="13.744,13.104 13.744,14.526 13.995,14.526 13.995,13.104 	"/>
	<polyline fill="#FFFFFF" points="17.758,13.104 17.758,14.526 18.008,14.526 18.008,13.104 	"/>
	<polyline fill="#FFFFFF" points="21.77,13.104 21.77,14.526 22.021,14.526 22.021,13.104 	"/>
	<polyline fill="#FFFFFF" points="7.723,13.104 7.723,15.529 7.975,15.529 7.975,13.104 	"/>
	<polyline fill="#FFFFFF" points="11.737,13.104 11.737,15.529 11.988,15.529 11.988,13.104 	"/>
	<polyline fill="#FFFFFF" points="15.752,13.104 15.752,15.529 16,15.529 16,13.104 	"/>
	<polyline fill="#FFFFFF" points="19.766,13.104 19.766,15.529 20.016,15.529 20.016,13.104 	"/>
	<polyline fill="#FFFFFF" points="3.835,9.675 3.835,11.942 4.087,11.942 4.087,9.675 	"/>
	<polyline fill="#FFFFFF" points="23.902,9.675 23.902,11.942 24.154,11.942 24.154,9.675 	"/>
	<polyline fill="#FFFFFF" points="4.003,10.935 4.591,10.935 4.591,10.683 4.003,10.683 	"/>
	<path fill="#FFFFFF" d="M23.063,10.935h0.336v-0.252h-0.336V10.935z M21.553,10.935h1.258v-0.252h-1.258V10.935z M20.039,10.935
		h1.262v-0.252h-1.262V10.935z M18.527,10.935h1.26v-0.252h-1.26V10.935z M17.018,10.935h1.26v-0.252h-1.26V10.935z M15.506,10.935
		h1.26v-0.252h-1.26V10.935z M13.995,10.935h1.259v-0.252h-1.259V10.935z M12.483,10.935h1.26v-0.252h-1.26V10.935z M10.972,10.935
		h1.259v-0.252h-1.259V10.935z M9.461,10.935h1.259v-0.252H9.461V10.935z M7.95,10.935h1.259v-0.252H7.95V10.935z M6.438,10.935
		h1.26v-0.252h-1.26V10.935z M4.926,10.935h1.26v-0.252h-1.26V10.935z"/>
	<polyline fill="#FFFFFF" points="23.482,10.935 24.154,10.935 24.154,10.683 23.482,10.683 	"/>
	<polyline fill="#FFFFFF" points="4.05,10.897 4.77,10.179 4.591,10 3.872,10.72 	"/>
	<polyline fill="#FFFFFF" points="3.873,10.897 4.583,11.608 4.761,11.431 4.05,10.72 	"/>
	<polyline fill="#FFFFFF" points="23.986,10.712 23.268,11.431 23.445,11.608 24.164,10.89 	"/>
	<polyline fill="#FFFFFF" points="24.164,10.712 23.453,10 23.275,10.179 23.986,10.89 	"/>
</g>
</svg>
