<?xml version="1.0" encoding="UTF-8"?>
<svg width="330px" height="224px" viewBox="0 0 330 224" version="1.1" xmlns="http://www.w3.org/2000/svg" xmlns:xlink="http://www.w3.org/1999/xlink">
    <!-- Generator: Sketch 47.1 (45422) - http://www.bohemiancoding.com/sketch -->
    <title>no preview</title>
    <desc>Created with Sketch.</desc>
    <defs></defs>
    <g id="03-CONSULER-NOMENCLATURE" stroke="none" stroke-width="1" fill="none" fill-rule="evenodd">
        <g id="Parts-vides" transform="translate(-918.000000, -181.000000)" fill="#E2E2E2">
            <g id="Viewer-3D" transform="translate(1082.500000, 293.500000) scale(-1, -1) translate(-1082.500000, -293.500000) translate(733.000000, 76.000000)">
                <g id="no-preview" transform="translate(184.000000, 105.000000)">
                    <g id="Part-icon" transform="translate(79.000000, 52.000000)" fill-rule="nonzero">
                        <path d="M173,99.146687 L173,73.8499739 L154.625157,73.8499739 C153.964023,70.2571462 153.002374,66.7778464 151.806991,63.4053965 L167.737643,54.2062882 L155.089286,32.2987203 L139.168651,41.4878115 C136.821293,38.7431047 134.260234,36.1853853 131.515528,33.8346876 L140.707958,17.914053 L118.80039,5.26569647 L109.601282,21.1963483 C106.222154,20.000965 102.742854,19.039316 99.146687,18.3748432 L99.146687,0 L73.8499739,0 L73.8499739,18.3748432 C70.2571462,19.039316 66.7778464,19.997626 63.4020575,21.1930092 L54.2062882,5.26569647 L32.2953813,17.914053 L41.4844724,33.8313486 C38.7397657,36.1820463 36.1820463,38.7364266 33.8313486,41.4844724 L17.9173921,32.2987203 L5.26569647,54.2096273 L21.1930092,63.4053965 C19.997626,66.7811855 19.0359769,70.2604852 18.3748432,73.853313 L0,73.853313 L0,99.1500261 L18.3748432,99.1500261 C19.039316,102.742854 19.997626,106.222154 21.1930092,109.601282 L5.26903553,118.793712 L17.914053,140.707958 L33.8313486,131.518867 C36.1820463,134.263573 38.7397657,136.824632 41.4878115,139.17533 L32.3020594,155.085947 L54.2096273,167.737643 L63.4053965,151.806991 C66.7811855,152.999035 70.2571462,153.964023 73.8499739,154.625157 L73.8499739,173 L99.146687,173 L99.146687,154.625157 C102.739515,153.964023 106.218815,153.002374 109.594603,151.806991 L118.793712,167.737643 L140.704619,155.089286 L131.512189,139.168651 C134.260234,136.817954 136.817954,134.260234 139.168651,131.512189 L155.089286,140.704619 L167.737643,118.797051 L151.806991,109.597943 C152.999035,106.222154 153.964023,102.742854 154.625157,99.1500261 L173,99.1500261 L173,99.146687 Z M86.5,110.090909 C73.4698811,110.090909 62.9090909,99.5227698 62.9090909,86.5 C62.9090909,73.4698811 73.4698811,62.9090909 86.5,62.9090909 C99.5227698,62.9090909 110.090909,73.4698811 110.090909,86.5 C110.090909,99.5227698 99.5227698,110.090909 86.5,110.090909 Z M86.5,94.3636364 C82.156627,94.3636364 78.6363636,90.8409233 78.6363636,86.5 C78.6363636,82.156627 82.156627,78.6363636 86.5,78.6363636 C90.8409233,78.6363636 94.3636364,82.156627 94.3636364,86.5 C94.3636364,90.8409233 90.8409233,94.3636364 86.5,94.3636364 Z" id="Shape"></path>
                    </g>
                    <text id="No-preview-available" transform="translate(165.500000, 16.000000) scale(-1, -1) translate(-165.500000, -16.000000) " font-family="Montserrat-Bold, Montserrat" font-size="26" font-weight="bold">
                        <tspan x="0.049" y="25">No preview available yet</tspan>
                    </text>
                </g>
            </g>
        </g>
    </g>
</svg>