<?xml version="1.0" encoding="UTF-8"?>
<svg width="50px" height="50px" viewBox="0 0 50 50" version="1.1" xmlns="http://www.w3.org/2000/svg" xmlns:xlink="http://www.w3.org/1999/xlink">
    <!-- Generator: Sketch 47.1 (45422) - http://www.bohemiancoding.com/sketch -->
    <title>Shape</title>
    <desc>Created with Sketch.</desc>
    <defs></defs>
    <g id="CHARTE" stroke="none" stroke-width="1" fill="none" fill-rule="evenodd">
        <g id="PICTOGRAMMES" transform="translate(-2594.000000, -215.000000)" fill-rule="nonzero" fill="#E6B748">
            <g id="noun_1299690_cc" transform="translate(2594.000000, 215.000000)">
                <path d="M25,0 L25,0 C11.1666667,0 0,11.1666667 0,25 L0,25 C0,38.8333333 11.1666667,50 25,50 L25,50 C38.8333333,50 50,38.8333333 50,25 L50,25 C50,11.1666667 38.8333333,0 25,0 Z M13.3888889,19.0555556 C15.6666667,14.6666667 20.1666667,11.8888889 25.1111111,11.8888889 C27.8888889,11.8888889 30.5555556,12.7777778 32.7777778,14.3333333 L32.7777778,11.1111111 L37.2222222,11.1111111 L37.2222222,22.7777778 L26.1111111,22.7777778 L26.1111111,18.3333333 L30.6111111,18.3333333 C29.0555556,17.0555556 27.1111111,16.3888889 25.1111111,16.3888889 C21.8333333,16.3888889 18.8333333,18.2222222 17.3333333,21.1111111 L16.3333333,23.1111111 L12.3888889,21.0555556 L13.3888889,19.0555556 Z M37,30.8888889 C34.7777778,35.5 30.2222222,38.3333333 25.1111111,38.3333333 C22,38.3333333 19,37.2222222 16.6666667,35.2777778 L16.6666667,38.3333333 L12.2222222,38.3333333 L12.2222222,27.2222222 L23.3333333,27.2222222 L23.3333333,31.6666667 L19.2777778,31.6666667 C20.8888889,33.0555556 22.9444444,33.8888889 25.1111111,33.8888889 C28.5,33.8888889 31.5,32 33,28.9444444 L33.9444444,26.9444444 L37.9444444,28.8888889 L37,30.8888889 Z" id="Shape"></path>
            </g>
        </g>
    </g>
</svg>