<?xml version="1.0" encoding="UTF-8"?>
<svg width="24px" height="24px" viewBox="0 0 24 24" version="1.1" xmlns="http://www.w3.org/2000/svg" xmlns:xlink="http://www.w3.org/1999/xlink">
    <!-- Generator: Sketch 47.1 (45422) - http://www.bohemiancoding.com/sketch -->
    <title>Preferences</title>
    <desc>Created with Sketch.</desc>
    <defs></defs>
    <g id="CONSULTER-PART/ASM/NODE" stroke="none" stroke-width="1" fill="none" fill-rule="evenodd">
        <g id="Select-a-node-+-option-menu-Copy-2" transform="translate(-1390.000000, -20.000000)">
            <g id="selected-part" transform="translate(726.000000, 0.000000)">
                <g id="Toolbar" transform="translate(560.000000, 21.000000)">
                    <g id="Preferences" transform="translate(105.000000, 0.000000)">
                        <circle id="Oval-3-Copy-3" stroke="#CAC8CA" stroke-width="0.7" fill="#CAC8CA" cx="11" cy="11" r="11"></circle>
                        <path d="M18,9.97629847 L16.5130185,9.97629847 C16.4595163,9.6855494 16.381695,9.40398757 16.2849588,9.13107255 L17.5741445,8.38663604 L16.5505781,6.61376928 L15.262203,7.35739515 C15.0722433,7.13528015 14.8649901,6.92829708 14.6428751,6.73806721 L15.3867711,5.44969215 L13.6139044,4.42612573 L12.8694679,5.71531142 C12.5960124,5.61857521 12.3144506,5.54075389 12.0234313,5.48698153 L12.0234313,4 L9.97629847,4 L9.97629847,5.48698153 C9.6855494,5.54075389 9.40398757,5.61830499 9.13080234,5.71504121 L8.38663604,4.42612573 L6.61349906,5.44969215 L7.35712493,6.73779699 C7.13500994,6.92802687 6.92802687,7.13473973 6.73779699,7.35712493 L5.44996236,6.61376928 L4.42612573,8.38690626 L5.71504121,9.13107255 C5.61830499,9.40425778 5.54048368,9.68581961 5.48698153,9.97656868 L4,9.97656868 L4,12.0237015 L5.48698153,12.0237015 C5.54075389,12.3144506 5.61830499,12.5960124 5.71504121,12.8694679 L4.42639594,13.613364 L5.44969215,15.3867711 L6.73779699,14.6431453 C6.92802687,14.8652603 7.13500994,15.0725136 7.35739515,15.2627434 L6.61403949,16.5503078 L8.38690626,17.5741445 L9.13107255,16.2849588 C9.40425778,16.3814248 9.6855494,16.4595163 9.97629847,16.5130185 L9.97629847,18 L12.0234313,18 L12.0234313,16.5130185 C12.3141804,16.4595163 12.5957422,16.381695 12.8689274,16.2849588 L13.613364,17.5741445 L15.3865009,16.5505781 L14.6426049,15.262203 C14.8649901,15.0719731 15.0719731,14.8649901 15.262203,14.6426049 L16.5505781,15.3865009 L17.5741445,13.6136342 L16.2849588,12.8691977 C16.3814248,12.5960124 16.4595163,12.3144506 16.5130185,12.0237015 L18,12.0237015 L18,9.97629847 Z M11,14 C9.34299065,14 8,12.6560748 8,11 C8,9.34299065 9.34299065,8 11,8 C12.6560748,8 14,9.34299065 14,11 C14,12.6560748 12.6560748,14 11,14 Z" id="Shape" fill="#FFFFFF" fill-rule="nonzero"></path>
                    </g>
                </g>
            </g>
        </g>
    </g>
</svg>