<?xml version="1.0" encoding="UTF-8"?>
<svg width="15px" height="11px" viewBox="0 0 15 11" version="1.1" xmlns="http://www.w3.org/2000/svg" xmlns:xlink="http://www.w3.org/1999/xlink">
    <!-- Generator: Sketch 47.1 (45422) - http://www.bohemiancoding.com/sketch -->
    <title>Assembly icon Copy 2</title>
    <desc>Created with Sketch.</desc>
    <defs></defs>
    <g id="CHARTE" stroke="none" stroke-width="1" fill="none" fill-rule="evenodd">
        <g id="PICTOGRAMMES" transform="translate(-2738.000000, -397.000000)" fill-rule="nonzero" fill="#4A4A4A">
            <g id="Assembly-icon-Copy-2" transform="translate(2738.000000, 397.000000)">
                <path d="M6.55094807,9 L8,9 L8,2 L6.55049551,2 L6.05346355,1.13904383 L6.30818176,0.992004425 L6.30818176,1.16824341 L6.96672058,1.34602356 L7.50042668,0.427968487 L8.0313447,1.34753238 C8.24599023,1.27152535 8.46721739,1.21059235 8.69566308,1.16834263 L8.69566308,0.996581018 L8.94528198,1.14045715 L8.36656189,2.15542603 L8.85087585,2.63816833 L9.86216736,2.05834961 L10.6636353,3.44680786 L9.65797424,4.03388977 L9.8352356,4.69967651 L11.001358,4.69967651 L11.001358,6.30776978 L9.8352356,6.30776978 L9.65797424,6.97532654 L10.6636353,7.55548096 L9.86216736,8.9463501 L8.85087585,8.36506653 L8.36656189,8.85348511 L8.94528198,9.8669281 L8.69566308,10.0098852 L8.69566308,9.83165737 C8.46721739,9.78961996 8.24620254,9.72826234 8.03155701,9.65246762 L7.49993973,10.5734357 L6.96672058,9.65605164 L6.30818176,9.83573914 L6.30818176,10.0078116 L6.05388817,9.86095617 L6.55094807,9 Z M8.69566308,10.4063314 L9.42175293,9.9861908 L8.80749512,8.91531372 L8.91789246,8.80693054 L9.98947144,9.42816162 L11.1383057,7.42683411 L10.0809326,6.80862427 L10.1110535,6.6570282 L11.3534698,6.6570282 L11.3534698,4.34603882 L10.1110535,4.34603882 L10.0809326,4.1902771 L11.1383057,3.56671143 L9.98947144,1.5776825 L8.91789246,2.19413757 L8.80749512,2.08351135 L9.42175293,1.01130676 L8.69566308,0.590693875 L8.69566308,0 L10.3041246,0 L10.3041246,1.16834263 C10.5327826,1.21059235 10.7540098,1.27173766 10.9688676,1.34774469 L11.553782,0.334813071 L12.9467488,1.13904383 L12.362259,2.15133852 C12.5367779,2.30080485 12.6996198,2.46343441 12.8488738,2.63795333 L13.8611685,2.05367586 L14.6653992,3.4466426 L13.6524676,4.03155701 C13.7284746,4.24599023 13.78962,4.46721739 13.8316574,4.69566308 L15,4.69566308 L15,6.30412461 L15,6.30433692 L13.8316574,6.30433692 C13.78962,6.53278261 13.7282623,6.75400977 13.6524676,6.9686553 L14.6653992,7.55356971 L13.8611685,8.94653645 L12.8488738,8.36204667 C12.6994075,8.5367779 12.5367779,8.69940746 12.3620467,8.84887379 L12.9465364,9.86116848 L11.5533574,10.6653992 L10.968443,9.65246762 C10.7537975,9.72847465 10.5325703,9.78961996 10.3041246,9.83165737 L10.3041246,11 L8.69566308,11 L8.69566308,10.4063314 Z M7.00764589,10.4117545 L6.65365601,10.2073241 L6.65365601,10.1168976 L6.81239319,10.0734711 L7.00764589,10.4117545 Z M6.65365601,0.792574917 L7.01019706,0.586756949 L6.81239319,0.932647705 L6.65365601,0.888565063 L6.65365601,0.792574917 Z" id="Combined-Shape"></path>
                <path d="M11,6.30412461 L11,4.69566308 L9.83165737,4.69566308 C9.78961996,4.46721739 9.72847465,4.24599023 9.65246762,4.03155701 L10.6653992,3.4466426 L9.86116848,2.05367586 L8.84887379,2.63795333 C8.69961977,2.46343441 8.5367779,2.30080485 8.36225898,2.15133852 L8.94674876,1.13904383 L7.55378202,0.334813071 L6.96886761,1.34774469 C6.75400977,1.27173766 6.53278261,1.21059235 6.30412461,1.16834263 L6.30412461,0 L4.69566308,0 L4.69566308,1.16834263 C4.46721739,1.21059235 4.24599023,1.27152535 4.0313447,1.34753238 L3.4466426,0.334813071 L2.05346355,1.13904383 L2.63774102,2.15112621 C2.4632221,2.30059254 2.30059254,2.46300979 2.15112621,2.63774102 L1.13925614,2.05367586 L0.334813071,3.44685491 L1.34753238,4.03155701 C1.27152535,4.24620254 1.21038004,4.4674297 1.16834263,4.69587539 L0,4.69587539 L0,6.30433692 L1.16834263,6.30433692 C1.21059235,6.53278261 1.27152535,6.75400977 1.34753238,6.96886761 L0.335025381,7.5533574 L1.13904383,8.94674876 L2.15112621,8.36247129 C2.30059254,8.53699021 2.4632221,8.69983208 2.63795333,8.84929841 L2.05388817,9.86095617 L3.44685491,10.6653992 L4.03155701,9.65246762 C4.24620254,9.72826234 4.46721739,9.78961996 4.69566308,9.83165737 L4.69566308,11 L6.30412461,11 L6.30412461,9.83165737 C6.5325703,9.78961996 6.75379746,9.72847465 6.96844299,9.65246762 L7.5533574,10.6653992 L8.94653645,9.86116848 L8.36204667,8.84887379 C8.5367779,8.69940746 8.69940746,8.5367779 8.84887379,8.36204667 L9.86116848,8.94653645 L10.6653992,7.55356971 L9.65246762,6.9686553 C9.72826234,6.75400977 9.78961996,6.53278261 9.83165737,6.30433692 L11,6.30433692 L11,6.30412461 Z M5.5,7 C4.67149533,7 4,6.32803738 4,5.5 C4,4.67149533 4.67149533,4 5.5,4 C6.32803738,4 7,4.67149533 7,5.5 C7,6.32803738 6.32803738,7 5.5,7 Z M5.5,6 C5.22383178,6 5,5.77601246 5,5.5 C5,5.22383178 5.22383178,5 5.5,5 C5.77601246,5 6,5.22383178 6,5.5 C6,5.77601246 5.77601246,6 5.5,6 Z" id="Shape"></path>
            </g>
        </g>
    </g>
</svg>