<?xml version="1.0" encoding="UTF-8"?>
<svg width="11px" height="11px" viewBox="0 0 11 11" version="1.1" xmlns="http://www.w3.org/2000/svg" xmlns:xlink="http://www.w3.org/1999/xlink">
    <!-- Generator: Sketch 47.1 (45422) - http://www.bohemiancoding.com/sketch -->
    <title>gear</title>
    <desc>Created with Sketch.</desc>
    <defs></defs>
    <g id="CHARTE" stroke="none" stroke-width="1" fill="none" fill-rule="evenodd">
        <g id="PICTOGRAMMES" transform="translate(-2721.000000, -379.000000)" fill-rule="nonzero" fill="#4A4A4A">
            <g id="gear" transform="translate(2721.000000, 379.000000)">
                <path d="M11,6.30412461 L11,4.69566308 L9.83165737,4.69566308 C9.78961996,4.46721739 9.72847465,4.24599023 9.65246762,4.03155701 L10.6653992,3.4466426 L9.86116848,2.05367586 L8.84887379,2.63795333 C8.69961977,2.46343441 8.5367779,2.30080485 8.36225898,2.15133852 L8.94674876,1.13904383 L7.55378202,0.334813071 L6.96886761,1.34774469 C6.75400977,1.27173766 6.53278261,1.21059235 6.30412461,1.16834263 L6.30412461,0 L4.69566308,0 L4.69566308,1.16834263 C4.46721739,1.21059235 4.24599023,1.27152535 4.0313447,1.34753238 L3.4466426,0.334813071 L2.05346355,1.13904383 L2.63774102,2.15112621 C2.4632221,2.30059254 2.30059254,2.46300979 2.15112621,2.63774102 L1.13925614,2.05367586 L0.334813071,3.44685491 L1.34753238,4.03155701 C1.27152535,4.24620254 1.21038004,4.4674297 1.16834263,4.69587539 L0,4.69587539 L0,6.30433692 L1.16834263,6.30433692 C1.21059235,6.53278261 1.27152535,6.75400977 1.34753238,6.96886761 L0.335025381,7.5533574 L1.13904383,8.94674876 L2.15112621,8.36247129 C2.30059254,8.53699021 2.4632221,8.69983208 2.63795333,8.84929841 L2.05388817,9.86095617 L3.44685491,10.6653992 L4.03155701,9.65246762 C4.24620254,9.72826234 4.46721739,9.78961996 4.69566308,9.83165737 L4.69566308,11 L6.30412461,11 L6.30412461,9.83165737 C6.5325703,9.78961996 6.75379746,9.72847465 6.96844299,9.65246762 L7.5533574,10.6653992 L8.94653645,9.86116848 L8.36204667,8.84887379 C8.5367779,8.69940746 8.69940746,8.5367779 8.84887379,8.36204667 L9.86116848,8.94653645 L10.6653992,7.55356971 L9.65246762,6.9686553 C9.72826234,6.75400977 9.78961996,6.53278261 9.83165737,6.30433692 L11,6.30433692 L11,6.30412461 Z M5.5,7 C4.67149533,7 4,6.32803738 4,5.5 C4,4.67149533 4.67149533,4 5.5,4 C6.32803738,4 7,4.67149533 7,5.5 C7,6.32803738 6.32803738,7 5.5,7 Z M5.5,6 C5.22383178,6 5,5.77601246 5,5.5 C5,5.22383178 5.22383178,5 5.5,5 C5.77601246,5 6,5.22383178 6,5.5 C6,5.77601246 5.77601246,6 5.5,6 Z" id="Shape"></path>
            </g>
        </g>
    </g>
</svg>