<?xml version="1.0" encoding="UTF-8"?>
<svg width="26px" height="26px" viewBox="0 0 20 20" version="1.1" xmlns="http://www.w3.org/2000/svg" xmlns:xlink="http://www.w3.org/1999/xlink">
    <!-- Generator: Sketch 47.1 (45422) - http://www.bohemiancoding.com/sketch -->
    <title>Button Team Copy 4</title>
    <desc>Created with Sketch.</desc>
    <defs>
        <path d="M13.7324723,5.26752768 L13.7324723,4.73247232 L13.7324723,4.73247232 C13.7324723,4.32793903 13.4045333,4 13,4 L13,4 L13,4 C12.5954667,4 12.2675277,4.32793903 12.2675277,4.73247232 L12.2675277,5.26752768 L11.7324723,5.26752768 C11.327939,5.26752768 11,5.59546671 11,6 L11,6 C11,6.40453329 11.327939,6.73247232 11.7324723,6.73247232 L12.2675277,6.73247232 L12.2675277,7.26752768 C12.2675277,7.67206097 12.5954667,8 13,8 L13,8 C13.4045333,8 13.7324723,7.67206097 13.7324723,7.26752768 L13.7324723,7.26752768 L13.7324723,6.73247232 L14.2675277,6.73247232 L14.2675277,6.73247232 C14.672061,6.73247232 15,6.40453329 15,6 L15,6 L15,6 C15,5.59546671 14.672061,5.26752768 14.2675277,5.26752768 L13.7324723,5.26752768 Z" id="path-1"></path>
    </defs>
    <g id="CHARTE" stroke="none" stroke-width="1" fill="none" fill-rule="evenodd">
        <g id="PICTOGRAMMES" transform="translate(-2622.000000, -1406.000000)">
            <g id="Button-Team-Copy-4" transform="translate(2623.000000, 1407.000000)">
                <circle id="Oval-5-Copy-4" stroke="#FF2E63" stroke-width="2" cx="9" cy="9" r="9"></circle>
                <path d="M13,10.0065898 C13,10.8500824 12.69869,11.6672158 12.1484716,12.3525535 C12.2532751,12.5370675 12.3842795,12.6952224 12.5545852,12.800659 C12.7248908,12.9192751 12.8165939,13.1301483 12.7641921,13.3278418 C12.7248908,13.538715 12.5545852,13.6836903 12.3449782,13.7100494 C12.2008734,13.7364086 12.0567686,13.7364086 11.9126638,13.7364086 C11.4803493,13.7364086 11.0873362,13.6441516 10.720524,13.4728171 C10.0393013,13.815486 9.27947598,14 8.49344978,14 C6.01746725,14 4,12.1943987 4,9.99341021 C4,7.79242175 6.03056769,6 8.50655022,6 C10.9825328,6 13,7.79242175 13,10.0065898 Z M10.5549451,9.97531889 C10.7349451,9.87335999 10.8549451,9.69857331 10.8549451,9.48008995 C10.8549451,9.17421326 10.5999451,8.92659879 10.2849451,8.92659879 C9.96994507,8.92659879 9.71494507,9.17421326 9.71494507,9.48008995 C9.71494507,9.69857331 9.83494507,9.87335999 10.0149451,9.97531889 C9.81994507,10.0335811 9.65494507,10.1501056 9.51994507,10.3103267 C9.32494507,9.97531889 9.03994507,9.72770442 8.70994507,9.62574552 C8.93494507,9.50922107 9.09994507,9.27617216 9.09994507,8.99942658 C9.09994507,8.60615654 8.76994507,8.28571429 8.36494507,8.28571429 C7.95994507,8.28571429 7.62994507,8.60615654 7.62994507,8.99942658 C7.62994507,9.27617216 7.77994507,9.50922107 8.01994507,9.62574552 C7.68994507,9.72770442 7.38994507,9.97531889 7.20994507,10.3103267 C7.07494507,10.1501056 6.90994507,10.0335811 6.71494507,9.97531889 C6.89494507,9.87335999 7.01494507,9.69857331 7.01494507,9.48008995 C7.01494507,9.17421326 6.75994507,8.92659879 6.44494507,8.92659879 C6.12994507,8.92659879 5.87494507,9.17421326 5.87494507,9.48008995 C5.87494507,9.69857331 5.99494507,9.87335999 6.17494507,9.97531889 C5.69494507,10.1209745 5.34994507,10.630769 5.34994507,11.2425223 L6.98494507,11.2425223 L7.55494507,11.2425223 L9.21994507,11.2425223 L9.78994507,11.2425223 L11.4249451,11.2425223 C11.3799451,10.630769 11.0349451,10.1209745 10.5549451,9.97531889 Z" id="Shape" fill="#FF2E63" fill-rule="nonzero"></path>
                <mask id="mask-2" fill="white">
                    <use xlink:href="#path-1"></use>
                </mask>
                <use id="Combined-Shape" fill="#FF2E63" xlink:href="#path-1"></use>
            </g>
        </g>
    </g>
</svg>
