<?xml version="1.0" encoding="UTF-8"?>
<svg width="46px" height="45px" viewBox="0 0 46 45" version="1.1" xmlns="http://www.w3.org/2000/svg" xmlns:xlink="http://www.w3.org/1999/xlink">
    <!-- Generator: Sketch 46.2 (44496) - http://www.bohemiancoding.com/sketch -->
    <title>branchv6</title>
    <desc>Created with Sketch.</desc>
    <defs></defs>
    <g id="Page-1" stroke="none" stroke-width="1" fill="none" fill-rule="evenodd">
        <g id="Maquette-3" transform="translate(-762.000000, -170.000000)">
            <g id="branchv6" transform="translate(764.000000, 172.000000)">
                <path d="M27.3123878,34 C29.3662478,34 31,32.2238806 31,30.0298507 C31,27.8358209 29.3195691,26.1119403 27.2657092,26.1119403 C25.7719928,26.1119403 24.464991,27.1044776 23.9048474,28.4626866 C20.9174147,28.0970149 20.3105925,26.0597015 19.3770197,23.0820896 C18.956912,21.6716418 18.443447,20 17.4631957,18.5895522 L23.7648115,18.5373134 C24.3249551,19.9477612 25.6319569,20.8880597 27.1723519,20.8880597 C29.2262118,20.8880597 30.8599641,19.1119403 30.8599641,16.9179104 C30.8599641,14.7761194 29.1795332,13 27.1256732,13 C25.5852783,13 24.3249551,13.9925373 23.7648115,15.4029851 L12.0951526,15.5074627 C11.535009,14.0970149 10.2280072,13.1567164 8.68761221,13.1567164 C6.63375224,13.1567164 5,14.9328358 5,17.1268657 C5,19.2686567 6.68043088,21.0447761 8.73429084,21.0447761 C10.2280072,21.0447761 11.535009,20.0522388 12.0951526,18.6940299 C15.0825853,19.0597015 15.7360862,21.0970149 16.6229803,24.0746269 C17.5098743,27.1044776 18.7235189,31.1268657 23.9048474,31.5970149 C24.464991,33.0074627 25.7719928,34 27.3123878,34 L27.3123878,34 Z M27.2190305,14.7238806 C28.3859964,14.7238806 29.3662478,15.7164179 29.3662478,16.9701493 C29.3662478,18.2238806 28.432675,19.2686567 27.2657092,19.2686567 C26.0987433,19.2686567 25.1184919,18.2761194 25.1184919,17.0223881 C25.0718133,15.7686567 26.005386,14.7238806 27.2190305,14.7238806 L27.2190305,14.7238806 Z M6.63375224,17.1268657 C6.63375224,15.8731343 7.56732496,14.8283582 8.73429084,14.8283582 C9.90125673,14.8283582 10.8815081,15.8208955 10.8815081,17.0746269 C10.8815081,18.3283582 9.94793537,19.3731343 8.78096948,19.3731343 C7.61400359,19.3731343 6.63375224,18.380597 6.63375224,17.1268657 Z M25.1651706,30.0820896 C25.1651706,28.8283582 26.0987433,27.7835821 27.2657092,27.7835821 C28.432675,27.7835821 29.4129264,28.7761194 29.4129264,30.0298507 C29.4129264,31.2835821 28.4793537,32.3283582 27.3123878,32.3283582 C26.1454219,32.3283582 25.1651706,31.3358209 25.1651706,30.0820896 Z" id="Shape" fill="#FFFFFF" fill-rule="nonzero"></path>
                <ellipse id="Oval" stroke="#FFFFFF" stroke-width="4" cx="21" cy="20.5" rx="21" ry="20.5"></ellipse>
            </g>
        </g>
    </g>
</svg>