<?xml version="1.0" encoding="UTF-8"?>
<svg width="47px" height="46px" viewBox="0 0 47 46" version="1.1" xmlns="http://www.w3.org/2000/svg" xmlns:xlink="http://www.w3.org/1999/xlink">
    <!-- Generator: Sketch 46.2 (44496) - http://www.bohemiancoding.com/sketch -->
    <title>Button Team</title>
    <desc>Created with Sketch.</desc>
    <defs></defs>
    <g id="Page-1" stroke="none" stroke-width="1" fill="none" fill-rule="evenodd">
        <g id="Maquette-3" transform="translate(-614.000000, -167.000000)">
            <g id="Button-Team" transform="translate(616.000000, 169.000000)">
                <path d="M33,28 L27.0366778,28 C26.9625397,27.3244047 26.9342966,26.6712359 26.8122462,26.0339524 C26.4844249,24.3220706 25.508526,22.9802244 23.9536442,22.0168236 C23.5042768,21.7383625 23.4180346,21.5089592 23.6001015,20.9968897 C24.6455994,18.0492199 23.4311474,15.1375258 20.5362329,13.5821616 C20.0752657,13.3340695 19.9002595,13.1523222 20.055092,12.6178264 C20.6017972,10.7330745 22.1894611,9.29077668 24.105955,9.05062732 C26.3331228,8.77123177 28.3398937,9.66174669 29.3732874,11.3881122 C30.3572557,13.0313131 30.142911,15.1155666 28.835156,16.6214058 C28.7161317,16.7583003 28.5945856,16.8937931 28.4014232,17.1115161 C30.9594383,17.5240684 32.3695744,18.9649645 33,21.1403252 L33,28 Z" id="Fill-1" fill="#FFFFFF"></path>
                <path d="M10.046229,30 C9.72691981,27.0730306 11.0580045,25.2527212 14.1556815,24.3262709 C12.3168196,20.8644239 12.4760018,18.6765059 14.6894379,16.9774545 C16.5429427,15.5549484 19.0936373,15.6987327 20.7695382,17.3196612 C22.6901168,19.1778338 22.7203472,21.6025167 20.8026027,24.3564656 C22.130381,24.6147981 23.2640231,25.1870597 24.071743,26.287489 C24.8723777,27.3773741 25.1416177,28.5990615 24.9314216,30 L10.046229,30 Z" id="Fill-4" fill="#FFFFFF"></path>
                <ellipse id="Oval-3" stroke="#FFFFFF" stroke-width="4" cx="21.5" cy="21" rx="21.5" ry="21"></ellipse>
            </g>
        </g>
    </g>
</svg>