<?xml version="1.0" encoding="UTF-8"?>
<svg width="45px" height="47px" viewBox="0 0 45 47" version="1.1" xmlns="http://www.w3.org/2000/svg" xmlns:xlink="http://www.w3.org/1999/xlink">
    <!-- Generator: Sketch 46.2 (44496) - http://www.bohemiancoding.com/sketch -->
    <title>Button 3D</title>
    <desc>Created with Sketch.</desc>
    <defs></defs>
    <g id="Page-1" stroke="none" stroke-width="1" fill="none" fill-rule="evenodd">
        <g id="Maquette-3" transform="translate(-1027.000000, -168.000000)" fill="#FFFFFF">
            <g id="Button-3D" transform="translate(1027.000000, 168.000000)">
                <path d="M2.27456122,12.9514375 C2.27456122,20.2492891 2.2474365,27.1582891 2.33061898,34.0661875 C2.33676724,34.5732734 3.04381826,35.2786406 3.58920596,35.5404453 C9.02065977,38.1474766 14.4850249,40.684375 19.9457734,43.2286172 C20.3555375,43.4199219 20.8083395,43.5150234 21.3989351,43.7063281 C21.3989351,42.8397656 21.3985734,42.17075 21.3989351,41.5017344 C21.40002,36.9118906 21.3902551,32.3220469 21.4119549,27.7325703 C21.4159332,26.8751875 21.1074347,25.69725 22.5511931,25.7280937 C23.8531797,25.756 23.5851874,26.8432422 23.590974,27.6514219 C23.6130355,30.649875 23.6021856,33.6486953 23.6029089,36.6471484 C23.6036322,38.9494141 23.6029089,41.2509453 23.6029089,43.7459844 C24.1128536,43.5767109 24.3924191,43.5139219 24.6466681,43.3953203 C30.3218827,40.7420234 36.0104789,38.1158984 41.6415707,35.3697031 C42.1876817,35.1034922 42.6748416,34.0878516 42.6849682,33.4129609 C42.7681507,27.8452969 42.732346,22.2757969 42.732346,16.7066641 L42.732346,13.0145937 C41.9041379,13.3263359 41.3518786,13.5022187 40.8245741,13.7372187 C35.3233193,16.1863594 29.814108,18.6175078 24.336723,21.1209922 C23.0879009,21.6923359 22.0058054,21.7507187 20.7341986,21.1632187 C15.7588017,18.8653594 10.7443453,16.6545234 5.7407387,14.4198203 C4.71289266,13.9608359 3.66804847,13.5404062 2.27456122,12.9514375 L2.27456122,12.9514375 Z M22.1392591,47 C15.7262521,43.9501406 9.3656862,40.7776406 2.87166671,37.91725 C0.614890057,36.9232734 -0.0567179954,35.6953984 0.00367971319,33.2697578 C0.178724569,26.2399531 0.062992433,19.2031719 0.0684173768,12.1693281 C0.0702256915,9.73010156 0.473841516,9.47857812 2.73097983,10.4865078 C8.82970174,13.2099375 14.9201054,15.9535625 21.0361871,18.6355 C21.7002003,18.9266797 22.6423322,19.1833437 23.2343744,18.9277812 C29.0180879,16.4334766 34.7551469,13.8271797 40.7092036,11.1610312 C40.2263836,10.8544297 39.9540514,10.6352187 39.6469996,10.49275 C34.2412239,7.98302344 28.8415964,5.45824219 23.4050793,3.01717969 C22.8546283,2.7700625 21.9956789,2.84607031 21.4213582,3.10053125 C17.4061764,4.88249219 13.4300542,6.75478125 9.43657213,8.58741406 C8.94796552,8.81176562 8.43476583,9.10882031 7.92662942,9.1209375 C7.5288002,9.13085156 6.85900046,8.82351562 6.78196626,8.52939844 C6.67202073,8.10970312 6.85683049,7.43591406 7.16460564,7.12196875 C7.56424317,6.71365625 8.20366322,6.54144531 8.74796592,6.28588281 C13.2108864,4.18814062 17.6752536,2.09480469 22.1392591,0 L22.8625849,0 C23.3338317,0.257398438 23.792782,0.543070313 24.2784953,0.767789063 C30.5493687,3.66857031 36.8057757,6.60203125 43.1120921,9.42203125 C44.4534999,10.0220156 44.9923777,10.7134297 44.9735712,12.25525 C44.8867721,19.3368281 44.829991,26.4228125 44.9970793,33.5014531 C45.0516904,35.8121641 44.3478943,36.9240078 42.2596526,37.8540937 C35.7334451,40.7622187 29.3200764,43.9317812 22.8625849,47 L22.1392591,47 Z" id="Fill-1"></path>
            </g>
        </g>
    </g>
</svg>