<?xml version="1.0" encoding="UTF-8"?>
<svg width="43px" height="36px" viewBox="0 0 43 36" version="1.1" xmlns="http://www.w3.org/2000/svg" xmlns:xlink="http://www.w3.org/1999/xlink">
    <!-- Generator: Sketch 46.2 (44496) - http://www.bohemiancoding.com/sketch -->
    <title>Button</title>
    <desc>Created with Sketch.</desc>
    <defs></defs>
    <g id="Page-1" stroke="none" stroke-width="1" fill="none" fill-rule="evenodd">
        <g id="Maquette-1" transform="translate(-1195.000000, -173.000000)" fill="#FFFFFF">
            <g id="Button" transform="translate(1195.000000, 173.000000)">
                <path d="M43,19.8288926 C42.2529116,20.2161542 41.5092283,20.9317896 40.7583942,20.9394417 C32.595585,21.0216183 24.4314136,20.9870176 16.2679233,20.9999929 C14.74957,21.0023218 13.9064565,20.4327412 14.0082703,18.8287996 C14.0644552,17.9458166 14.0644552,17.0541834 14.0082703,16.1712004 C13.9064565,14.5672588 14.74957,13.9976782 16.2679233,14.0000071 C24.4317542,14.0129824 32.595585,13.9783817 40.7583942,14.0605583 C41.5095688,14.0682104 42.2529116,14.7838458 43,15.1711074 L43,19.8288926 Z" id="Fill-1"></path>
                <path d="M43,5.99942363 C42.0363659,6.33024692 41.0757975,6.93796931 40.1084165,6.94789401 C32.3390527,7.02629913 24.568667,6.99387845 16.798622,6.99057021 C14.3944759,6.98957774 14.0248955,6.63361188 14.0119516,4.34232975 C13.986064,-0.231633096 13.6972122,-0.00667325722 18.3937788,0.00490555804 C25.7669932,0.0231008392 33.1405483,-0.022221952 40.5127408,0.0561831684 C41.3452335,0.0651153974 42.1709136,0.695002947 43,1.03707423 L43,5.99942363 Z" id="Fill-3"></path>
                <path d="M43,34.9579592 C42.2279615,35.2995568 41.4586475,35.9314957 40.6832035,35.93844 C32.518735,36.01086 24.3529043,35.9648948 16.1874141,35.9999474 C14.5619445,36.0068918 13.9165925,35.3260116 14.0085424,33.8008927 C14.061669,32.9229242 14.0569012,32.0380113 14.0143318,31.1590508 C13.9383881,29.5833371 14.7686614,28.9973634 16.2936673,29.0000089 C24.4022848,29.0132363 32.5115833,28.9788451 40.6195197,29.0496117 C41.4157376,29.056556 42.2065066,29.6670004 43,29.9976853 L43,34.9579592 Z" id="Fill-5"></path>
                <path d="M0,15.2557092 C1.03683406,14.0662351 6.24361123,13.4573911 6.59641568,14.6340407 C7.13452811,16.4278702 7.13452811,18.5721298 6.59641568,20.3659593 C6.24361123,21.5426089 1.03683406,20.9337649 0,19.7442908 L0,15.2557092 Z" id="Fill-7"></path>
                <path d="M0,1.08833131 C0.929440407,0.143680408 5.27408765,-0.407850887 6.27644475,0.368043081 C6.61463304,0.629907294 6.89013277,1.15557546 6.91949741,1.57908425 C7.00462188,2.80887619 7.05345297,4.06000521 6.90300042,5.27751216 C6.83800228,5.80641321 6.28502318,6.66765552 5.89338464,6.70127759 C3.89526924,6.87294413 1.76616773,7.5803008 0,5.93766861 L0,1.08833131 Z" id="Fill-9"></path>
                <path d="M0,30.0586633 C1.74484676,28.4313563 3.85183152,29.1106553 5.81930677,29.3169111 C6.2280566,29.3595074 6.84672261,30.4484356 6.81184523,31.0223647 C6.71699181,32.5875388 7.65183591,34.4287882 6.06475225,35.6640811 C5.06504274,36.4426647 0.859874042,35.7390249 0,34.8627581 L0,30.0586633 Z" id="Fill-11"></path>
            </g>
        </g>
    </g>
</svg>