<?xml version="1.0" encoding="UTF-8"?>
<svg width="47px" height="46px" viewBox="0 0 47 46" version="1.1" xmlns="http://www.w3.org/2000/svg" xmlns:xlink="http://www.w3.org/1999/xlink">
    <!-- Generator: Sketch 46.2 (44496) - http://www.bohemiancoding.com/sketch -->
    <title>Button Info</title>
    <desc>Created with Sketch.</desc>
    <defs></defs>
    <g id="Page-1" stroke="none" stroke-width="1" fill="none" fill-rule="evenodd">
        <g id="Maquette-1" transform="translate(-1291.000000, -168.000000)" fill="#FFFFFF">
            <g id="Button-Info" transform="translate(1291.000000, 168.000000)">
                <path d="M3.87687209,22.9451605 C3.91281434,33.7096096 12.6089316,42.2230202 23.5408199,42.1956236 C34.396467,42.1687591 43.2077628,33.5433685 43.1473145,23.0028794 C43.0860493,12.2910954 34.3057945,3.7675774 23.3896991,3.8223705 C12.5735339,3.87663162 3.84174672,12.4339298 3.87687209,22.9451605 M23.4204678,45.999222 C9.99004893,45.8893698 -0.332182629,35.437986 0.00817953997,21.9650024 C0.311782594,9.96079299 10.7148842,-0.112624838 23.8819989,0.000951138941 C36.7550407,0.111601271 47.1254676,10.6145863 46.9988528,23.4287228 C46.8763224,35.8199417 36.1344924,46.1029565 23.4204678,45.999222" id="Fill-1"></path>
                <path d="M22.0069789,26.5092235 C22.0072607,24.7254718 21.987255,22.9417201 22.0137414,21.1582233 C22.0348743,19.7482003 22.7632523,18.9846821 23.9934644,19.0002329 C25.2298755,19.0157837 25.9754416,19.7851653 25.9844583,21.1783628 C26.0069999,24.7030379 26.0036187,28.2279679 25.9833312,31.7526429 C25.9751598,33.1573124 25.2493177,33.9583053 24.0470009,33.9985844 C22.8150981,34.0396283 22.02783,33.1858646 22.0112055,31.7327583 C21.9911997,29.9915801 22.0066972,28.2504018 22.0069789,26.5092235" id="Fill-4"></path>
                <path d="M22,13.9041773 C22.0510369,13.3764209 21.9273705,12.7071921 22.1929307,12.3523465 C22.6340355,11.7634601 23.3090126,11.0322279 23.9161275,11.0010807 C24.5170731,10.9705156 25.4545259,11.5937514 25.7055041,12.1791446 C26.0596778,13.0044007 26.0201382,14.0657353 25.9615299,15.0138338 C25.8866571,16.2210073 25.1867223,17.0395682 23.9722121,16.9985237 C22.7826594,16.9586436 22.1351637,16.1697745 22.0577671,14.9247585 C22.0367354,14.5873787 22.054402,14.247379 22.054402,13.9085437 C22.0361745,13.9070882 22.0182275,13.9056328 22,13.9041773" id="Fill-6"></path>
            </g>
        </g>
    </g>
</svg>