<?xml version="1.0" encoding="UTF-8"?>
<svg width="21px" height="20px" viewBox="0 0 21 20" version="1.1" xmlns="http://www.w3.org/2000/svg" xmlns:xlink="http://www.w3.org/1999/xlink">
    <!-- Generator: Sketch 46.2 (44496) - http://www.bohemiancoding.com/sketch -->
    <title>Page 1</title>
    <desc>Created with Sketch.</desc>
    <defs></defs>
    <g id="Page-1" stroke="none" stroke-width="1" fill="none" fill-rule="evenodd">
        <g id="Maquette-23" transform="translate(-1114.000000, -887.000000)" fill="#707070">
            <g id="Page-1" transform="translate(1114.000000, 887.000000)">
                <path d="M13.5876138,20 L13.5876138,16.4251817 L12.1747516,16.4251817 C8.73033889,16.4251817 5.28592622,16.4308152 1.84151355,16.4222425 C0.360102025,16.4185685 0.00838207417,16.0734558 0.00588937431,14.6183003 C-0.00183799526,10.3366012 -0.00208726524,6.05514699 0.00588937431,1.77344788 C0.00838207417,0.306045595 0.321215907,0.00673569736 1.85821464,0.00502115621 C7.62657139,-0.00159207392 13.3949281,-0.00183700837 19.1632849,0.00526609066 C20.6800927,0.00722556626 20.9921788,0.314863235 20.9946715,1.79426731 C21.001651,6.07572149 21.0021496,10.3574206 20.9939237,14.6388748 C20.991431,16.0408796 20.6088015,16.5687133 19.2669812,16.3884415 C16.4856267,16.0146716 14.5530365,16.7242467 13.9652579,19.6686037 C13.9485568,19.7518814 13.8082178,19.8114005 13.5876138,20" id="Fill-4"></path>
            </g>
        </g>
    </g>
</svg>