<?xml version="1.0" encoding="UTF-8"?>
<svg width="29px" height="26px" viewBox="0 0 29 26" version="1.1" xmlns="http://www.w3.org/2000/svg" xmlns:xlink="http://www.w3.org/1999/xlink">
    <!-- Generator: Sketch 47.1 (45422) - http://www.bohemiancoding.com/sketch -->
    <title>chat group copy</title>
    <desc>Created with Sketch.</desc>
    <defs></defs>
    <g id="CHARTE" stroke="none" stroke-width="1" fill="none" fill-rule="evenodd">
        <g id="PICTOGRAMMES" transform="translate(-2469.000000, -1318.000000)">
            <g id="chat-group-copy" transform="translate(2469.000000, 1318.000000)">
                <g id="chat-group" fill-rule="nonzero" fill="#FF2E63">
                    <path d="M2.13061224,14.2409091 C0.887755102,12.7340909 0.236734694,10.9318182 0.236734694,9.07045455 C0.236734694,4.16590909 4.73469388,0.177272727 10.2683673,0.177272727 C14.7663265,0.177272727 18.5540816,2.80681818 19.8265306,6.41136364 C19.5010204,6.38181818 19.1755102,6.38181818 18.8204082,6.38181818 C18.5244898,6.38181818 18.2285714,6.38181818 17.9326531,6.41136364 C16.7193878,3.78181818 13.7306122,1.92045455 10.2387755,1.92045455 C5.68163265,1.92045455 1.95306122,5.11136364 1.95306122,9.07045455 C1.95306122,10.6954545 2.5744898,12.2318182 3.75816327,13.5022727 L4.11326531,13.8863636 L3.93571429,14.3886364 C3.7877551,14.8022727 3.58061224,15.2159091 3.31428571,15.5409091 C3.87653061,15.4522727 4.37959184,15.275 4.82346939,15.0090909 L5.26734694,14.7431818 L5.71122449,14.9795455 C6.1255102,15.2159091 6.53979592,15.3931818 6.98367347,15.5704545 C6.9244898,16.0431818 6.86530612,16.5159091 6.86530612,17.0181818 C6.86530612,17.1363636 6.86530612,17.2545455 6.86530612,17.3727273 C6.30306122,17.1954545 5.77040816,16.9886364 5.26734694,16.7227273 C4.46836735,17.1068182 3.58061224,17.2840909 2.63367347,17.2840909 C2.30816327,17.2840909 1.98265306,17.2545455 1.65714286,17.225 C1.18367347,17.1659091 0.828571429,16.8113636 0.710204082,16.3681818 C0.591836735,15.8954545 0.798979592,15.4522727 1.18367347,15.1863636 C1.59795918,15.0090909 1.89387755,14.6545455 2.13061224,14.2409091 Z M28.7632653,16.8113636 C28.7632653,18.7022727 28.0826531,20.5340909 26.8397959,22.0704545 C27.0765306,22.4840909 27.372449,22.8386364 27.7571429,23.075 C28.1418367,23.3409091 28.3489796,23.8136364 28.2306122,24.2568182 C28.1418367,24.7295455 27.7571429,25.0545455 27.2836735,25.1136364 C26.9581633,25.1727273 26.6326531,25.1727273 26.3071429,25.1727273 C25.3306122,25.1727273 24.4428571,24.9659091 23.6142857,24.5818182 C22.0755102,25.35 20.3591837,25.7636364 18.5836735,25.7636364 C12.9908163,25.7636364 8.43367347,21.7159091 8.43367347,16.7818182 C8.43367347,11.8477273 13.0204082,7.82954545 18.6132653,7.82954545 C24.2061224,7.82954545 28.7632653,11.8477273 28.7632653,16.8113636 Z M27.0173469,16.8113636 C27.0173469,12.8227273 23.2591837,9.57272727 18.6132653,9.57272727 C13.9673469,9.57272727 10.2091837,12.8227273 10.2091837,16.8113636 C10.2091837,20.8 13.9673469,24.05 18.6132653,24.05 C20.2704082,24.05 21.8387755,23.6363636 23.2295918,22.8681818 L23.6734694,22.6022727 L24.1173469,22.8681818 C24.5908163,23.1340909 25.0938776,23.3113636 25.6561224,23.4 C25.3897959,23.0454545 25.1826531,22.6318182 25.0346939,22.2181818 L24.8571429,21.7159091 L25.2122449,21.3318182 C26.3959184,20.0318182 27.0173469,18.4659091 27.0173469,16.8113636 Z" id="Shape"></path>
                </g>
                <g id="Button-Team" transform="translate(13.612245, 11.227273)" stroke="#FF2E63" stroke-width="1.2" fill="#FFFFFF">
                    <path d="M2.39105895,8.35151515 C2.22727723,6.85255204 2.91002409,5.92033297 4.49890056,5.44587813 C3.55570201,3.67299282 3.63735058,2.5525136 4.77267768,1.68239338 C5.72338693,0.953897796 7.03170241,1.02753279 7.89131414,1.85764467 C8.87642724,2.8092543 8.8919332,4.05098581 7.90827378,5.46134148 C8.58932467,5.59363902 9.17079822,5.88670632 9.58509812,6.4502595 C9.99576382,7.00841279 10.1338638,7.63406482 10.0260489,8.35151515 L2.39105895,8.35151515 Z" id="Fill-4-Copy"></path>
                    <path d="M0.0237120109,9.53333333 C-0.140069705,8.03437022 0.542677151,7.10215115 2.13155362,6.62769631 C1.18835507,4.85481101 1.27000365,3.73433179 2.40533075,2.86421156 C3.35603999,2.13571598 4.66435547,2.20935098 5.5239672,3.03946285 C6.5090803,3.99107248 6.52458626,5.232804 5.54092684,6.64315966 C6.22197774,6.77545721 6.80345128,7.0685245 7.21775118,7.63207768 C7.62841688,8.19023097 7.76651684,8.815883 7.65870196,9.53333333 L0.0237120109,9.53333333 Z" id="Fill-4"></path>
                </g>
            </g>
        </g>
    </g>
</svg>