<?xml version="1.0" encoding="UTF-8"?>
<svg width="20px" height="20px" viewBox="0 0 20 20" version="1.1" xmlns="http://www.w3.org/2000/svg" xmlns:xlink="http://www.w3.org/1999/xlink">
    <!-- Generator: Sketch 47.1 (45422) - http://www.bohemiancoding.com/sketch -->
    <title>details copy</title>
    <desc>Created with Sketch.</desc>
    <defs>
        <path d="M9.09973881,5 L9.10026124,5 L9.10026124,5 C9.70763021,5 10.2,5.49236984 10.2,6.09973881 C10.2,6.70710778 9.70763021,7.19947762 9.10026124,7.19947762 L9.09973881,7.19947762 C8.49236984,7.19947762 8,6.70710778 8,6.09973881 L8,6.09973881 L8,6.09973881 C8,5.49236984 8.49236984,5 9.09973881,5 L9.09973881,5 Z M10.1994776,8.7306225 L10.1994776,12.9002612 L10.1994776,12.9002612 C10.1994776,13.5076302 9.70710778,14 9.09973881,14 L9.09973881,14 C8.49236984,14 8,13.5076302 8,12.9002612 L8,8.7306225 C8,8.12325352 8.49236984,7.63088369 9.09973881,7.63088369 L9.09973881,7.63088369 L9.09973881,7.63088369 C9.70710778,7.63088369 10.1994776,8.12325352 10.1994776,8.7306225 L10.1994776,8.7306225 Z" id="path-1"></path>
    </defs>
    <g id="CHARTE" stroke="none" stroke-width="1" fill="none" fill-rule="evenodd">
        <g id="PICTOGRAMMES" transform="translate(-2636.000000, -580.000000)">
            <g id="details-copy" transform="translate(2637.000000, 581.000000)">
                <circle id="Oval-5" stroke="#FF2E63" stroke-width="2" cx="9" cy="9" r="9"></circle>
                <circle id="Oval-5-Copy-3" stroke="#FF2E63" stroke-width="2" cx="9" cy="9" r="9"></circle>
                <mask id="mask-2" fill="white">
                    <use xlink:href="#path-1"></use>
                </mask>
                <use id="Combined-Shape" fill="#FF2E63" xlink:href="#path-1"></use>
            </g>
        </g>
    </g>
</svg>