<?xml version="1.0" encoding="UTF-8"?>
<svg width="26px" height="26px" viewBox="0 0 26 26" version="1.1" xmlns="http://www.w3.org/2000/svg" xmlns:xlink="http://www.w3.org/1999/xlink">
    <!-- Generator: Sketch 47.1 (45422) - http://www.bohemiancoding.com/sketch -->
    <title>icon file</title>
    <desc>Created with Sketch.</desc>
    <defs></defs>
    <g id="03-CONSULER-NOMENCLATURE" stroke="none" stroke-width="1" fill="none" fill-rule="evenodd">
        <g id="Select-a-node-+-option-menu-Copy-12" transform="translate(-759.000000, -776.000000)">
            <g id="Group-5" transform="translate(751.000000, 577.000000)">
                <g id="Files" transform="translate(3.000000, 0.000000)">
                    <g id="Ass1-Copy-4" transform="translate(0.000000, 196.000000)">
                        <g id="icon-file" transform="translate(5.000000, 3.000000)">
                            <circle id="Oval-4" fill="#FFFFFF" cx="13" cy="13" r="13"></circle>
                            <path d="M8.05280449,5.03226538 L16.9860734,5.03226538 L19.8955403,9.97834979 L19.8955403,19.9570518 L19.8955403,19.9570518 C19.8955403,20.5093365 19.447825,20.9570518 18.8955403,20.9570518 L8.05280449,20.9570518 L8.05280449,20.9570518 C7.50051974,20.9570518 7.05280449,20.5093365 7.05280449,19.9570518 L7.05280449,6.03226538 L7.05280449,6.03226538 C7.05280449,5.47998063 7.50051974,5.03226538 8.05280449,5.03226538 Z" id="Path-2" fill="#4A4A4A"></path>
                            <path d="M17.0075892,5.06828353 L16.0869602,6.59348085 L16.0869602,6.59348085 C15.8015569,7.06630577 15.9534922,7.68097118 16.4263171,7.96637447 C16.4338883,7.97094459 16.4415199,7.97541407 16.4492098,7.97978174 L19.8929407,9.93574656 L17.0075892,5.06828353 Z" id="Path-3" fill-opacity="0.5" fill="#FFFFFF" style="mix-blend-mode: lighten;"></path>
                        </g>
                    </g>
                </g>
            </g>
        </g>
    </g>
</svg>