<?xml version="1.0" encoding="UTF-8"?>
<svg width="36px" height="35px" viewBox="0 0 36 35" version="1.1" xmlns="http://www.w3.org/2000/svg" xmlns:xlink="http://www.w3.org/1999/xlink">
    <!-- Generator: Sketch 46.2 (44496) - http://www.bohemiancoding.com/sketch -->
    <title>Home</title>
    <desc>Created with Sketch.</desc>
    <defs></defs>
    <g id="Page-1" stroke="none" stroke-width="1" fill="none" fill-rule="evenodd">
        <g id="Home-page-1" transform="translate(-1118.000000, -64.000000)" fill="#303E4D">
            <g id="Home" transform="translate(1118.000000, 64.000000)">
                <path d="M0,14.1144591 C0.812584163,13.7589977 1.60099721,13.1877784 2.44291261,13.0952721 C3.95700242,12.9285991 5.50368251,13.0246114 7.03569696,13.0567054 C8.44278204,13.0861024 8.97807729,13.6335884 8.99274291,15.0252276 C9.01121073,16.7709796 8.9873112,18.5170014 8.99790304,20.2627534 C9.00469268,21.4316225 8.43897984,21.9893569 7.26274254,21.9818054 C5.45968564,21.9704781 3.65174019,22.0519268 1.85574451,21.9405417 C1.22240686,21.9014356 0.61758569,21.4108558 0,21.1265946 L0,14.1144591 Z" id="Fill-1"></path>
                <path d="M36,21.1170487 C35.2022816,21.4021781 34.4189536,21.8685817 33.6033151,21.9338621 C31.9913157,22.063074 30.3613961,21.9611072 28.7390791,21.9724368 C27.5631368,21.9807992 26.9975659,21.4221398 27.0046253,20.2530285 C27.0152145,18.4621355 27.0239031,16.6709727 27.000281,14.8800797 C26.98399,13.6251868 27.6769026,13.0762386 28.8311235,13.0503422 C30.5878417,13.0109582 32.354063,12.9443292 34.099649,13.0872985 C34.7567214,13.1415189 35.3679073,13.7484641 36,14.1034596 L36,21.1170487 Z" id="Fill-3"></path>
                <path d="M0,1.09100284 C0.868890425,0.745070159 1.71469373,0.199777363 2.61183193,0.0982216042 C4.0793577,-0.0676438703 5.58164997,0.0154228455 7.06655899,0.0674065322 C8.49931828,0.117782476 8.98197483,0.646193971 8.99419742,2.05832814 C9.00886453,3.79174293 8.98632064,5.52515772 8.9999013,7.25857251 C9.00859292,8.35558907 8.44309436,8.93946769 7.37185215,8.96117222 C5.48088149,8.99922214 3.58393534,9.03861184 1.69894017,8.92526597 C1.11687322,8.89043154 0.565498551,8.36094821 0,8.05788868 L0,1.09100284 Z" id="Fill-5"></path>
                <path d="M36,9.03575681 C35.1649667,9.3431515 34.3483931,9.83220066 33.4905565,9.91727595 C32.0194754,10.0633486 30.5226049,9.97666813 29.037136,9.95152009 C27.4419943,9.92449932 27.0242062,9.5084865 27.0111757,7.97151307 C26.9970594,6.32966695 26.9957021,4.6875533 27.0106328,3.04570719 C27.0233918,1.63581163 27.5052462,1.10342222 28.937236,1.05874432 C30.6016019,1.00657551 32.2784552,0.944240468 33.930605,1.09191833 C34.6448354,1.15585857 35.311559,1.7347986 36,2.07991535 L36,9.03575681 Z" id="Fill-8"></path>
                <path d="M0,26.9642432 C0.835033325,26.6568485 1.65160688,26.1677993 2.50944345,26.0827241 C3.98052459,25.9366514 5.47739512,26.0233319 6.96286403,26.0484799 C8.55800571,26.0755007 8.97579384,26.4915135 8.98882427,28.0284869 C9.00294057,29.670333 9.0042979,31.3124467 8.9893672,32.9542928 C8.97660824,34.3641884 8.49475384,34.8965778 7.06276398,34.9412557 C5.39839815,34.9934245 3.72154481,35.0557595 2.069395,34.9080817 C1.35516462,34.8441414 0.688440999,34.2652014 0,33.9200846 L0,26.9642432 Z" id="Fill-10"></path>
                <path d="M36,33.9089972 C35.1311096,34.2549298 34.2855779,34.8002226 33.3881681,34.9017784 C31.9206423,35.0676439 30.41835,34.9845772 28.933441,34.9325935 C27.5006817,34.8822175 27.0180252,34.353806 27.0058026,32.9416719 C26.9911355,31.2082571 27.0136794,29.4748423 27.0000987,27.7414275 C26.9914071,26.6444109 27.5569056,26.0605323 28.6281478,26.0388278 C30.5191185,26.0007779 32.4160647,25.9613882 34.3010598,26.074734 C34.8831268,26.1095685 35.4345014,26.6390518 36,26.9421113 L36,33.9089972 Z" id="Fill-12"></path>
                <path d="M21.9905356,17.5800891 C21.9905356,18.5274306 21.9962244,19.4745008 21.9889103,20.4218424 C21.9815961,21.3892651 21.5159294,21.9732465 20.525541,21.9851867 C18.5444934,22.0090669 16.562904,22.0001118 14.5818564,21.9860008 C13.5727763,21.9786739 13.0892306,21.3054128 13.0556397,20.4283552 C12.9830402,18.5366571 12.9822275,16.6384462 13.0488674,14.7464767 C13.0878761,13.6341441 13.8073705,13.0390367 14.9137015,13.0222119 C16.6696362,12.9958894 18.4269254,12.9882911 20.1823184,13.0254683 C21.3425573,13.0501627 22.0308988,13.614063 21.9989334,14.8734764 C21.9761783,15.7752283 21.9945991,16.6777944 21.9945991,17.5800891 L21.9905356,17.5800891 Z" id="Fill-14"></path>
                <path d="M21.9842567,5.51796564 C21.9829018,6.45940167 21.9755855,7.4008377 21.9847986,8.34227373 C21.9950957,9.38834373 21.4601909,9.95250419 20.4359051,9.9719208 C18.5447701,10.0077876 16.6525511,10.0061696 14.7608741,9.98459554 C13.6005588,9.97165113 13.0431631,9.27831626 13.0217561,8.18370473 C12.9876132,6.43593993 13.0000781,4.68682676 13.0157946,2.93879229 C13.0266336,1.74628867 13.6978389,1.08612385 14.8546315,1.04836932 C16.6547189,0.989580137 18.4596839,0.979602156 20.2589584,1.04513322 C21.4127703,1.08693287 22.0652782,1.71392765 21.9948247,2.96306305 C21.9468621,3.8120005 21.9856116,4.66606177 21.9842567,5.51796564" id="Fill-16"></path>
                <path d="M21.9859235,30.4923922 C21.9856523,31.342416 21.9471464,32.1943234 21.9948721,33.0416564 C22.0651048,34.2885733 21.4102321,34.9123008 20.2561378,34.9540082 C18.4553058,35.0188565 16.6487793,35.0132058 14.8482185,34.9491648 C13.6111465,34.9053047 12.9955933,34.1704472 13.0023725,32.9286428 C13.0110499,31.3181988 12.9880006,29.7074857 13.0094229,28.0973108 C13.0289471,26.6257121 13.5756234,26.0528407 15.0277322,26.0245873 C16.6951492,25.9920286 18.3641931,25.9914904 20.0313388,26.0248564 C21.6225573,26.0568769 21.967484,26.4440831 21.9848388,28.0768607 C21.9932451,28.8819482 21.9861947,29.6873047 21.9859235,30.4923922" id="Fill-18"></path>
            </g>
        </g>
    </g>
</svg>