<?xml version="1.0" encoding="UTF-8"?>
<svg width="1024px" height="1024px" viewBox="0 0 1024 1024" version="1.1" xmlns="http://www.w3.org/2000/svg" xmlns:xlink="http://www.w3.org/1999/xlink">
    <!-- Generator: Sketch 47.1 (45422) - http://www.bohemiancoding.com/sketch -->
    <title>icon bocket</title>
    <desc>Created with Sketch.</desc>
    <defs>
        <path d="M456.628906,456.628906 L329.189603,456.628906 C298.611598,456.628906 273.816406,481.419389 273.816406,512 C273.816406,542.587334 298.607831,567.371094 329.189603,567.371094 L456.628906,567.371094 L456.628906,694.810397 C456.628906,725.388402 481.419389,750.183594 512,750.183594 C542.587334,750.183594 567.371094,725.392169 567.371094,694.810397 L567.371094,567.371094 L694.810397,567.371094 C725.388402,567.371094 750.183594,542.580611 750.183594,512 C750.183594,481.412666 725.392169,456.628906 694.810397,456.628906 L567.371094,456.628906 L567.371094,329.189603 C567.371094,298.611598 542.580611,273.816406 512,273.816406 C481.412666,273.816406 456.628906,298.607831 456.628906,329.189603 L456.628906,456.628906 Z M512,962 C62,962 62,675.476563 62,512 C62,348.523438 62,62 512,62 C962,62 962,347.644531 962,512 C962,676.355469 962,962 512,962 Z" id="path-1"></path>
    </defs>
    <g id="Symbols" stroke="none" stroke-width="1" fill="none" fill-rule="evenodd">
        <g id="icon-bocket">
            <mask id="mask-2" fill="white">
                <use xlink:href="#path-1"></use>
            </mask>
            <use id="Combined-Shape" fill="#181818" transform="translate(512.000000, 512.000000) rotate(14.000000) translate(-512.000000, -512.000000) " xlink:href="#path-1"></use>
        </g>
    </g>
</svg>