<svg xmlns="http://www.w3.org/2000/svg" xmlns:xlink="http://www.w3.org/1999/xlink" viewBox="0 0 105 101"><defs><style>.cls-1{fill:none;}.cls-2{clip-path:url(#clip-path);}.cls-3{clip-path:url(#clip-path-2);}.cls-4{fill:#fff;}</style><clipPath id="clip-path"><path class="cls-1" d="M52.5,96c-20,0-38.1-12.1-44.7-30C-.4,43.8,10.1,19.2,32.2,9.4,51.9.7,74.4,5.3,88.6,21a44.14,44.14,0,0,1-2.9,62.1A48.55,48.55,0,0,1,52.5,96m-2.6-4.2c12.4,0,21.9-3.2,29.7-9.2A40,40,0,0,0,89,28.4C74.8,7.2,44.4,2.7,24.4,18.9,10,30.6,4.9,49.7,12.5,66.3c7.8,16.9,21.7,24.6,37.4,25.5"/></clipPath><clipPath id="clip-path-2"><path class="cls-1" d="M46,42.2c1.6,3.7,1.5,7.6,1.8,11.4a8,8,0,0,0,7.4,7.3,1.36,1.36,0,0,0,1.6-.8c1.3-2.5,3.3-4.1,6.3-3.8a7.45,7.45,0,0,1,6.3,4.6,10.83,10.83,0,0,1-.5,10.6c-3,4.8-8.8,4.9-11.8.1a2.27,2.27,0,0,0-2-1.2,15.25,15.25,0,0,1-13.2-9.5A24.54,24.54,0,0,1,40,51.3a10,10,0,0,0-2.3-6.7,2.7,2.7,0,0,0-.8.7A6.49,6.49,0,0,1,27.73,45l-.23-.26c-3.4-3.6-3.4-10.3-.2-14s8.3-3.3,11,1a2.32,2.32,0,0,0,2.2,1.2h22a1.54,1.54,0,0,0,1.6-.9c3.3-5.3,9.6-5,12.4.6a10.76,10.76,0,0,1-.3,10.7c-2.9,5-8.9,5.1-12,.2a2,2,0,0,0-2-1.1c-5,.1-9.9,0-14.9,0H46Zm-9.7-4.7c.1,0,.1,0,.2-.1a14.44,14.44,0,0,0-1.1-2.9A3.14,3.14,0,0,0,32,32.9a4.36,4.36,0,0,0-3.1,3.9c-.4,2.5,1.3,5.1,3.4,5.3s3.8-1.7,4-4.3ZM74,37.4c0-2.4-1.6-4.5-3.6-4.6s-3.5,1.7-3.8,4.1V37c-.2,2.5,1.5,4.9,3.6,5S74,40,74,37.4ZM59.3,65.6c0,2.6,1.7,4.6,3.7,4.6s3.6-2.1,3.6-4.5c0-2.6-1.6-4.7-3.7-4.7s-3.6,2-3.6,4.6Z"/></clipPath></defs><title>Fichier 1</title><g id="Calque_2" data-name="Calque 2"><g id="Calque_1-2" data-name="Calque 1"><g id="Calque_2-2" data-name="Calque 2"><g class="cls-2"><g id="Calque_1-2-2" data-name="Calque 1-2"><g class="cls-3"><rect class="cls-4" width="105" height="101"/><rect class="cls-4" x="20" y="23" width="63" height="57"/></g></g></g></g></g></g></svg>