<?xml version="1.0" encoding="UTF-8"?>
<svg width="19px" height="20px" viewBox="0 0 19 20" version="1.1" xmlns="http://www.w3.org/2000/svg" xmlns:xlink="http://www.w3.org/1999/xlink">
    <!-- Generator: Sketch 46.2 (44496) - http://www.bohemiancoding.com/sketch -->
    <title>Page 1</title>
    <desc>Created with Sketch.</desc>
    <defs></defs>
    <g id="Page-1" stroke="none" stroke-width="1" fill="none" fill-rule="evenodd">
        <g id="Maquette-3" transform="translate(-725.000000, -876.000000)" fill="#8F8F8F">
            <g id="Issues" transform="translate(725.000000, 875.000000)">
                <g id="Page-1">
                    <g id="Group-3" transform="translate(0.000000, 0.237100)">
                        <path d="M1.3213,10.3913 L9.3593,18.7393 C12.0023,15.9943 14.6943,13.1963 17.3123,10.4763 L9.2753,2.1303 L1.3213,10.3913 Z M9.4973,0.7633 C12.3243,3.6933 15.1513,6.6233 17.9783,9.5533 C18.1393,9.7203 18.3023,9.8853 18.4603,10.0573 C18.6593,10.2743 18.6763,10.6183 18.4793,10.8383 C18.4223,10.9013 18.3633,10.9623 18.3033,11.0233 C15.4973,13.9373 12.6903,16.8513 9.8843,19.7653 C9.5823,20.0783 9.0933,20.0783 8.7923,19.7653 C5.9853,16.8513 3.1783,13.9373 0.3713,11.0223 C0.2453,10.8913 0.1243,10.7543 0.0003,10.6203 C0.0003,10.4873 0.0013,10.4093 0.0013,10.2763 L9.1643,0.7633 L9.4973,0.7633 Z" id="Fill-1"></path>
                    </g>
                    <path d="M9.2568,12.5689 C9.1468,11.5569 9.0348,10.5449 8.9278,9.5329 C8.8248,8.5609 8.7248,7.5889 8.6288,6.6159 C8.6108,6.4309 8.5948,6.2399 8.6198,6.0579 C8.6848,5.5779 9.0228,5.2499 9.4088,5.2619 C9.7998,5.2739 10.1358,5.6149 10.1438,6.1049 C10.1518,6.6199 10.1008,7.1379 10.0478,7.6519 C9.8948,9.1239 9.7298,10.5949 9.5638,12.0669 C9.5428,12.2499 9.4838,12.4279 9.4428,12.6099 C9.3808,12.5959 9.3188,12.5829 9.2568,12.5689" id="Fill-4"></path>
                    <path d="M9.3598,15.3628 C8.9328,15.3518 8.5978,14.9848 8.6198,14.5518 C8.6408,14.1388 8.9868,13.8048 9.3908,13.8088 C9.8128,13.8128 10.1628,14.1788 10.1518,14.6058 C10.1418,15.0368 9.7888,15.3738 9.3598,15.3628" id="Fill-6"></path>
                </g>
            </g>
        </g>
    </g>
</svg>