<?xml version="1.0" encoding="UTF-8"?>
<svg width="35px" height="34px" viewBox="0 0 35 34" version="1.1" xmlns="http://www.w3.org/2000/svg" xmlns:xlink="http://www.w3.org/1999/xlink">
    <!-- Generator: Sketch 46.2 (44496) - http://www.bohemiancoding.com/sketch -->
    <title>Shape</title>
    <desc>Created with Sketch.</desc>
    <defs></defs>
    <g id="Page-1" stroke="none" stroke-width="1" fill="none" fill-rule="evenodd">
        <g id="Maquette-4" transform="translate(-47.000000, -284.000000)" fill-rule="nonzero" fill="#9B9B9B">
            <path d="M82,300.781541 L82,298.24697 L78.2825462,298.24697 C78.1487908,297.55385 77.9542375,296.882631 77.712397,296.232026 L80.9353612,294.457355 L78.3764452,290.230996 L75.1555075,292.003735 C74.6806084,291.474232 74.1624752,290.980803 73.6071877,290.527312 L75.4669279,287.455939 L71.034761,285.015846 L69.1736697,288.089152 C68.4900311,287.858541 67.7861265,287.673022 67.0585783,287.544833 L67.0585783,284 L61.9407462,284 L61.9407462,287.544833 C61.2138735,287.673022 60.5099689,287.857897 59.8270058,288.088508 L57.9665901,285.015846 L53.5337477,287.455939 L55.3928123,290.526667 C54.8375248,290.980159 54.3200672,291.472944 53.8444925,292.003091 L50.6249059,290.230996 L48.0653143,294.457999 L51.287603,296.232026 C51.0457625,296.883276 50.8512092,297.554494 50.7174538,298.247615 L47,298.247615 L47,303.127799 L50.7174538,303.127799 C50.8518847,303.82092 51.0457625,304.492138 51.287603,305.144032 L48.0659898,306.917415 L50.6242304,311.145062 L53.8444925,309.372323 C54.3200672,309.901826 54.8375248,310.395899 55.3934879,310.849391 L53.5350987,313.918831 L57.9672656,316.359568 L59.8276814,313.286262 C60.5106445,313.516229 61.2138735,313.702392 61.9407462,313.829936 L61.9407462,317.37477 L67.0585783,317.37477 L67.0585783,313.829936 C67.785451,313.702392 68.4893555,313.516873 69.1723186,313.286262 L71.0334099,316.359568 L75.4662523,313.919475 L73.6065121,310.848102 C74.1624752,310.394611 74.6799328,309.901181 75.1555075,309.371035 L78.3764452,311.144418 L80.9353612,306.918059 L77.712397,305.143388 C77.953562,304.492138 78.1487908,303.82092 78.2825462,303.127799 L82,303.127799 L82,300.781541 Z M64.7777778,303.567834 C63.2435099,303.567834 62,302.381242 62,300.919043 C62,299.456019 63.2435099,298.270252 64.7777778,298.270252 C66.3111803,298.270252 67.5555556,299.456019 67.5555556,300.919043 C67.5555556,302.381242 66.3111803,303.567834 64.7777778,303.567834 Z" id="Shape"></path>
        </g>
    </g>
</svg>