<svg xmlns="http://www.w3.org/2000/svg" xmlns:xlink="http://www.w3.org/1999/xlink" viewBox="0 0 890.16 1255.35">
    <defs>
        <style>.cls-1{fill:none;}.cls-2{clip-path:url(#clip-path);}.cls-3{clip-path:url(#clip-path-2);}.cls-4{fill:#50e3c2;}</style>
        <clipPath id="clip-path" transform="translate(-65.76 350.65)">
            <path class="cls-1" d="M597.57-83.6c-50.21-13.69-82.17-47.93-73-75.32S581.59-200,631.81-186.31s82.17,47.93,73,75.32C693.43-81.32,647.78-67.62,597.57-83.6ZM777.88,391.15v-4.57c0-6.85,2.28-11.41,2.28-18.26V345.5h0c-6.85-59.34-41.08-116.41-95.86-159.77L714,87.58C777.88,78.45,825.81,46.5,839.51.85,864.62-79,775.6-177.18,645.5-216c-132.38-38.8-257.92-4.57-280.74,75.32C351.06-95,373.89-42.52,421.82.85L392.15,99c-70.76,9.13-130.1,36.52-168.9,82.17h0a69.36,69.36,0,0,0-11.41,16l-2.28,2.28c-4.57,4.57-6.85,11.41-9.13,16,0,2.28-2.28,2.28-2.28,4.57-2.28,6.85-6.85,13.69-9.13,22.82-36.52,121,66.19,257.92,228.25,305.85S739.08,537.23,775.6,416.26C775.6,407.13,777.88,398,777.88,391.15ZM376.17,562.33l-59.34,182.6,27.39,45.65,50.21-25.11,59.34-180.31c-13.69-2.28-27.39-4.57-38.8-9.13C401.28,571.46,387.58,566.9,376.17,562.33Z"/>
        </clipPath>
        <clipPath id="clip-path-2" transform="translate(-65.76 350.65)">
            <rect class="cls-1" x="0" y="-235px" width="855" height="1024"/>
        </clipPath>
    </defs>
    <title>Fichier 1</title>
    <g id="Calque_2" data-name="Calque 2">
        <g id="Calque_1-2" data-name="Calque 1">
            <g class="cls-2">
                <g class="cls-3">
                    <rect class="cls-4" width="890.16" height="1255.35"/>
                </g>
            </g>
        </g>
    </g>
</svg>