<?xml version="1.0" encoding="UTF-8"?>
<svg width="32px" height="42px" viewBox="0 0 32 42" version="1.1" xmlns="http://www.w3.org/2000/svg" xmlns:xlink="http://www.w3.org/1999/xlink">
    <!-- Generator: Sketch 46.2 (44496) - http://www.bohemiancoding.com/sketch -->
    <title>Notification</title>
    <desc>Created with Sketch.</desc>
    <defs></defs>
    <g id="Page-1" stroke="none" stroke-width="1" fill="none" fill-rule="evenodd">
        <g id="Home-page-1" transform="translate(-1200.000000, -61.000000)" fill="#303E4D">
            <g id="Notification" transform="translate(1200.000000, 61.000000)">
                <path d="M30.306822,32.0371952 C30.9767357,32.1062399 31.4385116,32.1543895 32,32.211624 L32,36 L0,36 L0,32.2615906 C0.442414158,32.1861864 0.935168658,32.100789 1.43373166,32.0163 C1.47923158,31.8009895 1.54409318,31.6401879 1.54409318,31.4802948 C1.55183785,27.3812174 1.54602935,23.2830485 1.55861443,19.1848797 C1.57507185,13.4568915 4.14920587,9.0716418 9.63339888,6.48609788 C15.1446982,3.88783518 20.4982,4.89534334 25.4112237,7.96874288 C28.7733777,10.0700651 30.2526093,13.3124426 30.2932688,17.0699302 C30.3474815,22.0048123 30.306822,26.9396945 30.306822,32.0371952" id="Fill-1"></path>
                <path d="M11,38 L21,38 C20.7357539,40.3003658 19.0373172,41.8162794 16.626828,41.9799829 C13.6898638,42.1796444 11.7846697,40.8879952 11,38" id="Fill-4"></path>
                <path d="M15.435984,4.99945513 C14.0786021,4.96970589 12.9980799,3.85554899 13.0000026,2.48612444 C13.0009639,1.04472594 14.1949216,-0.0799871446 15.6340156,0.00446230188 C17.0029334,0.08603279 18.0392349,1.22130205 17.9988595,2.59840382 C17.9604067,3.91216851 16.7702943,5.02824471 15.435984,4.99945513" id="Fill-7"></path>
            </g>
        </g>
    </g>
</svg>