<svg xmlns="http://www.w3.org/2000/svg" xmlns:xlink="http://www.w3.org/1999/xlink" class="" app-context="doc-2d" x="0px" y="0px" width="600" height="600" style="#807C7C" jvs-fullPath="gdrive/paramedit.svg"><title/><desc/><defs/><g id="jvs-guides" transform="matrix(1 0 0 1 0 0)"/><g id="jvs-content" enable-background="new"><g transform="matrix(1,0,0,1,0,0)" name="Layer" jvs-layer-color="#fb0094" class="jvs-layer selected"><rect transform="matrix(1 0 0 1 312.222 216.107)" width="310" height="75" fill="rgb(88,88,88)" stroke="rgb(0,0,0)" stroke-width="1" stroke-linecap="butt" stroke-linejoin="miter" opacity="1" rx="0" x="-47.22189712524414" y="-156.10719299316406" selected="true" fill-opacity="1" stroke-opacity="0"/><rect transform="matrix(1 0 0 1 199.528 176.333)" width="125" height="125" fill="rgb(88,88,88)" stroke="rgb(0,0,0)" stroke-width="1.00" stroke-linecap="butt" stroke-linejoin="miter" opacity="1" rx="0" x="-74.52780151367188" y="-141.33282470703125" selected="true" fill-opacity="1" stroke-opacity="0"/><rect transform="matrix(1,0,0,1,45.73373794555664,218.7587432861328)" width="85" height="75" fill="rgb(88,88,88)" stroke="rgb(0,0,0)" stroke-width="1.00" stroke-linecap="butt" stroke-linejoin="miter" opacity="1" x="-20.73373794555664" y="-158.7587432861328" selected="true" fill-opacity="1" stroke-opacity="0"/><rect transform="matrix(1 0 0 1 23.4643 542.374)" width="200" height="75" fill="rgb(88,88,88)" stroke="rgb(0,0,0)" stroke-width="1.00" stroke-linecap="butt" stroke-linejoin="miter" opacity="1" x="1.5356481075286865" y="-82.37413787841797" rx="0" selected="true" fill-opacity="1" stroke-opacity="0"/><rect transform="matrix(1 0 0 1 311.183 337.928)" width="200" height="75" fill="rgb(88,88,88)" stroke="rgb(0,0,0)" stroke-width="1.00" stroke-linecap="butt" stroke-linejoin="miter" opacity="1" rx="0" x="63.81726837158203" y="122.07198333740234" selected="true" fill-opacity="1" stroke-opacity="0"/><rect transform="matrix(1,0,0,1,180.96641540527344,696.050537109375)" width="125" height="125" fill="rgb(88,88,88)" stroke="rgb(0,0,0)" stroke-width="1.00" stroke-linecap="butt" stroke-linejoin="miter" opacity="1" x="56.53357696533203" y="-261.050537109375" selected="true" fill-opacity="1" stroke-opacity="0"/><rect transform="matrix(1 0 0 1 504.755 357.384)" width="85" height="75" fill="rgb(88,88,88)" stroke="rgb(0,0,0)" stroke-width="1.00" stroke-linecap="butt" stroke-linejoin="miter" opacity="1" x="-14.755338668823242" y="-97.38343811035156" rx="0" selected="true" fill-opacity="1" stroke-opacity="0"/><rect transform="matrix(1 0 0 1 65.735 360.608)" width="310" height="75" fill="rgb(88,88,88)" stroke="rgb(0,0,0)" stroke-width="1" stroke-linecap="butt" stroke-linejoin="miter" opacity="1" rx="0" x="-40.73501968383789" y="-100.60796356201172" selected="true" fill-opacity="1" stroke-opacity="0"/><rect transform="matrix(1 0 0 1 407.212 323.772)" width="125" height="125" fill="rgb(88,88,88)" stroke="rgb(0,0,0)" stroke-width="1.00" stroke-linecap="butt" stroke-linejoin="miter" opacity="1" rx="0" x="-57.21177291870117" y="-88.77174377441406" selected="true" fill-opacity="1" stroke-opacity="0"/></g></g></svg>