<?xml version="1.0" encoding="UTF-8"?>
<svg width="17px" height="22px" viewBox="0 0 17 22" version="1.1" xmlns="http://www.w3.org/2000/svg" xmlns:xlink="http://www.w3.org/1999/xlink">
    <!-- Generator: Sketch 47.1 (45422) - http://www.bohemiancoding.com/sketch -->
    <title>Marker cube Copy 3</title>
    <desc>Created with Sketch.</desc>
    <defs></defs>
    <g id="CHARTE" stroke="none" stroke-width="1" fill="none" fill-rule="evenodd">
        <g id="PICTOGRAMMES" transform="translate(-2664.000000, -550.000000)" stroke-width="1.8" stroke="#223241" fill="#B6C0CA" fill-rule="nonzero">
            <g id="Marker-cube-Copy-3" transform="translate(2665.000000, 551.000000)">
                <g id="Map-marker">
                    <path d="M7.30927875,0.37437989 C11.5828442,0.37437989 14.873757,3.78603034 14.873757,7.49907228 C14.873757,9.12337511 14.6470743,10.4229386 12.8598015,13.0309199 C10.8076949,16.0253455 7.30927875,19 7.30927875,19 C7.30927875,19 4.2070857,16.079223 2.0119766,13.0309199 C0.446695111,10.8572455 0.0303871208,9.04454483 0.0303871208,7.49907228 C0.0303871208,3.78627016 3.0359893,0.37437989 7.30927875,0.37437989 Z M7.5,11.4 C9.51189445,11.4 11.1428571,9.79319971 11.1428571,7.81111111 C11.1428571,5.82902251 9.51189445,4.22222222 7.5,4.22222222 C5.48810555,4.22222222 3.85714286,5.82902251 3.85714286,7.81111111 C3.85714286,9.79319971 5.48810555,11.4 7.5,11.4 Z" id="Combined-Shape"></path>
                </g>
            </g>
        </g>
    </g>
</svg>