<?xml version="1.0" encoding="UTF-8"?>
<svg width="30px" height="45px" viewBox="0 0 30 45" version="1.1" xmlns="http://www.w3.org/2000/svg" xmlns:xlink="http://www.w3.org/1999/xlink">
    <!-- Generator: Sketch 46.2 (44496) - http://www.bohemiancoding.com/sketch -->
    <title>Shape</title>
    <desc>Created with Sketch.</desc>
    <defs></defs>
    <g id="Page-1" stroke="none" stroke-width="1" fill="none" fill-rule="evenodd">
        <g id="Maquette-16" transform="translate(-954.000000, -530.000000)" fill-rule="nonzero" fill="#50E3C2">
            <path d="M962.931039,565 L960.355795,572.950611 L961.557066,575 L963.781497,573.893267 L966.355795,565.947378 C965.775116,565.836038 965.193756,565.707097 964.618827,565.545069 C964.037845,565.386929 963.472639,565.202266 962.931039,565 Z M980.559548,557.481363 C980.57102,557.412327 980.57017,557.340122 980.578349,557.267566 C980.617367,556.991281 980.643816,556.718658 980.647675,556.439099 C980.646719,556.389601 980.639497,556.341899 980.641763,556.295922 C980.63978,555.988622 980.626396,555.689173 980.59584,555.385675 C980.591591,555.371065 980.588475,555.360645 980.582952,555.341916 C980.271621,552.786317 978.755825,550.277048 976.399651,548.298627 L977.670433,544.046876 C980.451522,543.603335 982.571286,542.254933 983.179466,540.214024 C984.23756,536.683261 980.424613,532.434116 974.669008,530.717687 C968.908516,529.000377 963.386771,530.47122 962.331652,533.996526 C961.719966,536.040744 962.750938,538.327205 964.838552,540.221135 L963.563486,544.474047 C960.508738,544.839118 957.861097,546.104015 956.196415,548.075571 C956.185085,548.083422 956.171631,548.091871 956.165718,548.102679 C955.972716,548.335662 955.790973,548.583466 955.626332,548.835319 C955.599317,548.874924 955.565433,548.914247 955.544684,548.951987 C955.391019,549.187047 955.264476,549.436858 955.144199,549.684803 C955.117042,549.74708 955.071297,549.808019 955.046866,549.871739 C954.89922,550.18879 954.772642,550.515593 954.676194,550.851655 C953.089195,556.144332 957.55274,562.148139 964.63507,564.262484 C971.721613,566.375598 978.749735,563.792258 980.330502,558.501412 C980.429676,558.166794 980.51051,557.823937 980.559548,557.481363 Z M972.637462,536.748083 C970.464304,536.144866 969.023685,534.652253 969.421973,533.406454 C969.819461,532.165036 971.905791,531.648374 974.074815,532.252751 C976.252038,532.854841 977.685673,534.353479 977.290234,535.594381 C976.894796,536.835284 974.81267,537.350753 972.637462,536.748083 Z" id="Shape"></path>
        </g>
    </g>
</svg>