<?xml version="1.0" encoding="UTF-8"?>
<svg width="15px" height="20px" viewBox="0 0 15 20" version="1.1" xmlns="http://www.w3.org/2000/svg" xmlns:xlink="http://www.w3.org/1999/xlink">
    <!-- Generator: Sketch 46.2 (44496) - http://www.bohemiancoding.com/sketch -->
    <title>Button Pull request</title>
    <desc>Created with Sketch.</desc>
    <defs></defs>
    <g id="Page-1" stroke="none" stroke-width="1" fill="none" fill-rule="evenodd">
        <g id="Maquette-3" transform="translate(-535.000000, -875.000000)" fill="#8F8F8F">
            <g id="Pull-Request" transform="translate(535.000000, 875.000000)">
                <g id="Button-Pull-request">
                    <path d="M13.1373859,16.0460966 C13.3798293,15.9850774 13.6222728,15.9839633 13.8646518,16.0467822 C15.1720941,16.5703303 15.2698962,18.5176308 14.5671129,19.4120932 C14.1255218,19.9742925 13.5051422,20.1581213 12.936112,19.8550822 C12.3707542,19.5540142 12.0068635,18.8435521 12.0000986,18.0279347 C11.9933336,17.2057183 12.3352543,16.4972272 12.8988081,16.1692491 C12.9768951,16.1238275 13.057817,16.086976 13.1373859,16.0460966" id="Fill-5"></path>
                    <path d="M13.9867668,15.9993552 C13.9772604,15.8120388 13.9595559,15.6246418 13.9594686,15.4372449 C13.9576371,12.4833849 13.9711554,9.52936367 13.9520554,6.57558428 C13.9431595,5.20762663 13.2348909,4.19987419 11.9224877,3.57779682 C11.5398778,3.3964449 11.1133119,3.29319521 10.6671227,3.29827307 C10.0280152,3.30552714 9.38838429,3.3105244 8.74953836,3.29585504 C8.47210916,3.28948757 8.35184042,3.36202834 8.3698066,3.63445922 C8.39082528,3.95291318 8.37477782,4.27354337 8.37477782,4.67670882 C7.71953557,4.19769797 7.11496493,3.77309268 6.53167461,3.32479075 C5.80875394,2.76920908 5.82209775,2.76759706 6.57754942,2.23506724 C7.08356772,1.87832787 7.56996277,1.49797246 8.06682356,1.13002957 C8.14051978,1.07546279 8.1991279,0.956415337 8.3155592,1.01654357 C8.41995491,1.07046554 8.36003858,1.18693377 8.37425454,1.27543351 C8.3764349,1.28857144 8.37442896,1.30219299 8.37469061,1.31565333 C8.39204629,2.25892509 8.39204629,2.26182672 9.44175954,2.25819968 C10.5811293,2.25425024 11.6988698,2.33299727 12.7129123,2.88890134 C13.9316472,3.5570824 14.6681734,4.52735545 14.9227524,5.81914529 C15.0042979,6.23254705 14.9994139,6.64490101 14.9995011,7.05959239 C15.0001988,9.85233128 15.0003732,12.6451508 14.9986289,15.4378897 C14.9985417,15.6252866 14.98075,15.8126836 14.9712436,16 C14.6431428,15.9409196 14.3149548,15.9419674 13.9867668,15.9993552" id="Fill-1"></path>
                    <path d="M3.47115137,3.35767431 C2.87924089,3.95841252 2.03737635,4.16388092 1.26515845,3.86252727 C0.507127826,3.56665279 0.0201172278,2.86472139 0.000598971155,2.03976579 C-0.0191772361,1.20864614 0.452012397,0.482914654 1.22809955,0.149970245 C1.31950003,0.110760027 1.41210427,0.0743749991 1.5041926,0.0366201819 C1.83256363,-0.0116648905 2.16059072,-0.0156886466 2.48801592,0.045609424 C4.23760837,0.587104252 4.32969671,2.48614587 3.47115137,3.35767431 Z" id="Fill-8"></path>
                    <path d="M2.97486582,18 C2.65676017,17.9187765 2.33806977,17.9241083 2.01904522,17.9880887 C2.01278001,17.0063739 2.0016697,16.0247726 2.00125202,15.0430578 C1.99916362,10.944563 2.00008252,6.84606822 2.00116849,2.74745999 C2.00125202,2.50242834 2.01336476,2.25739668 2.01979705,2.01213814 C2.33832038,2.07543799 2.65634249,2.08020249 2.97386339,2 C2.98255115,2.16879959 2.99892423,2.33771261 2.99892423,2.5065122 C3.00034435,7.50209511 3.00034435,12.497678 2.99900777,17.4932609 C2.99900777,17.6621739 2.98330298,17.831087 2.97486582,18" id="Fill-10"></path>
                </g>
            </g>
        </g>
    </g>
</svg>