<svg fill="#585858" xmlns="http://www.w3.org/2000/svg" xmlns:xlink="http://www.w3.org/1999/xlink" version="1.1" x="0px" y="0px" viewBox="0 0 32 32">
    <path d="M29.7070923,6.2928467l-4-4C25.5118408,2.0975952,25.2559204,2,25,2s-0.5118408,0.0975952-0.7070923,0.2928467  l-22,22.000061c-0.390564,0.3905029-0.390564,1.0236816,0,1.4141846l4,4C6.4881592,29.9023438,6.7440796,30,7,30  s0.5118408-0.0976562,0.7070923-0.2929077l22-22C30.0976562,7.3165894,30.0976562,6.6834106,29.7070923,6.2928467z M7,29l-4-4  l1.6464844-1.6464844l2,2C6.7441406,25.4511719,6.8720703,25.5,7,25.5s0.2558594-0.0488281,0.3535156-0.1464844  c0.1953125-0.1953125,0.1953125-0.5117188,0-0.7070312l-2-2l1.2929688-1.2929688l1,1C7.7441406,22.4511719,7.8720703,22.5,8,22.5  s0.2558594-0.0488281,0.3535156-0.1464844c0.1953125-0.1953125,0.1953125-0.5117188,0-0.7070312l-1-1l1.2929688-1.2929688l2,2  C10.7441406,21.4511719,10.8720703,21.5,11,21.5s0.2558594-0.0488281,0.3535156-0.1464844  c0.1953125-0.1953125,0.1953125-0.5117188,0-0.7070312l-2-2l1.2929688-1.2929688l1,1C11.7441406,18.4511719,11.8720703,18.5,12,18.5  s0.2558594-0.0488281,0.3535156-0.1464844c0.1953125-0.1953125,0.1953125-0.5117188,0-0.7070312l-1-1l1.2929688-1.2929688l2,2  C14.7441406,17.4511719,14.8720703,17.5,15,17.5s0.2558594-0.0488281,0.3535156-0.1464844  c0.1953125-0.1953125,0.1953125-0.5117188,0-0.7070312l-2-2l1.2929688-1.2929688l1,1C15.7441406,14.4511719,15.8720703,14.5,16,14.5  s0.2558594-0.0488281,0.3535156-0.1464844c0.1953125-0.1953125,0.1953125-0.5117188,0-0.7070312l-1-1l1.2929688-1.2929688l2,2  C18.7441406,13.4511719,18.8720703,13.5,19,13.5s0.2558594-0.0488281,0.3535156-0.1464844  c0.1953125-0.1953125,0.1953125-0.5117188,0-0.7070312l-2-2l1.2929688-1.2929688l1,1C19.7441406,10.4511719,19.8720703,10.5,20,10.5  s0.2558594-0.0488281,0.3535156-0.1464844c0.1953125-0.1953125,0.1953125-0.5117188,0-0.7070312l-1-1l1.2929688-1.2929688l2,2  C22.7441406,9.4511719,22.8720703,9.5,23,9.5s0.2558594-0.0488281,0.3535156-0.1464844  c0.1953125-0.1953125,0.1953125-0.5117188,0-0.7070312l-2-2L25,3l4,4L7,29z"/>
    <path d="M24,6.5C24,7.3270874,24.6729126,8,25.5,8S27,7.3270874,27,6.5S26.3270874,5,25.5,5S24,5.6729126,24,6.5z M25.5,6  C25.776123,6,26,6.223877,26,6.5S25.776123,7,25.5,7S25,6.776123,25,6.5S25.223877,6,25.5,6z"/>
</svg>