<?xml version="1.0" encoding="UTF-8"?>
<svg width="17px" height="17px" viewBox="0 0 17 17" version="1.1" xmlns="http://www.w3.org/2000/svg" xmlns:xlink="http://www.w3.org/1999/xlink">
    <!-- Generator: Sketch 46.2 (44496) - http://www.bohemiancoding.com/sketch -->
    <title>Shape</title>
    <desc>Created with Sketch.</desc>
    <defs></defs>
    <g id="Page-1" stroke="none" stroke-width="1" fill="none" fill-rule="evenodd">
        <g id="Maquette-3" transform="translate(-1122.000000, -359.000000)" stroke="#FF2E63" stroke-width="0.75" fill="#FF2E63" fill-rule="nonzero">
            <g id="Progress" transform="translate(1118.000000, 348.000000)">
                <path d="M20,19.5423177 L20,18.4031769 L18.4068055,18.4031769 C18.3494818,18.0916601 18.2661018,17.7899867 18.1624558,17.4975777 L19.5437262,16.6999672 L18.4470479,14.8004671 L17.0666461,15.5972091 C16.8631179,15.3592287 16.6410608,15.1374612 16.4030804,14.9336434 L17.2001119,13.5532416 L15.3006118,12.4565633 L14.5030013,13.8378337 C14.2100133,13.7341877 13.9083399,13.6508077 13.5965336,13.5931945 L13.5965336,12 L11.4031769,12 L11.4031769,13.5931945 C11.0916601,13.6508077 10.7899867,13.7338982 10.4972882,13.8375442 L9.69996719,12.4565633 L7.80017757,13.5532416 L8.59691957,14.9333539 C8.35893922,15.1371716 8.13717164,15.3586497 7.93335392,15.5969196 L6.5535311,14.8004671 L5.45656328,16.7002567 L6.83754415,17.4975777 C6.73389821,17.7902762 6.65051823,18.0919496 6.5931945,18.4034664 L5,18.4034664 L5,20.5968231 L6.5931945,20.5968231 C6.65080774,20.9083399 6.73389821,21.2100133 6.83754415,21.5030013 L5.45685279,22.3000328 L6.55324159,24.2001119 L7.93335392,23.4033699 C8.13717164,23.6413503 8.35893922,23.8634074 8.59720909,24.0672251 L7.8007566,25.4467584 L9.7002567,26.5437262 L10.4975777,25.1624558 C10.7902762,25.2658123 11.0916601,25.3494818 11.4031769,25.4068055 L11.4031769,27 L13.5965336,27 L13.5965336,25.4068055 C13.9080504,25.3494818 14.2097238,25.2661018 14.5024223,25.1624558 L15.3000328,26.5437262 L17.1998224,25.4470479 L16.4027909,24.0666461 C16.6410608,23.8628284 16.8628284,23.6410608 17.0666461,23.4027909 L18.4470479,24.1998224 L19.5437262,22.3003223 L18.1624558,21.5027118 C18.2658123,21.2100133 18.3494818,20.9083399 18.4068055,20.5968231 L20,20.5968231 L20,19.5423177 Z M12.5949367,20.5443038 C12.0705667,20.5443038 11.6455696,20.119011 11.6455696,19.5949367 C11.6455696,19.0705667 12.0705667,18.6455696 12.5949367,18.6455696 C13.119011,18.6455696 13.5443038,19.0705667 13.5443038,19.5949367 C13.5443038,20.119011 13.119011,20.5443038 12.5949367,20.5443038 Z" id="Shape"></path>
            </g>
        </g>
    </g>
</svg>