<?xml version="1.0" encoding="UTF-8"?>
<svg width="15px" height="15px" viewBox="0 0 15 15" version="1.1" xmlns="http://www.w3.org/2000/svg" xmlns:xlink="http://www.w3.org/1999/xlink">
    <!-- Generator: Sketch 46.2 (44496) - http://www.bohemiancoding.com/sketch -->
    <title>Shape</title>
    <desc>Created with Sketch.</desc>
    <defs></defs>
    <g id="Page-1" stroke="none" stroke-width="1" fill="none" fill-rule="evenodd">
        <g id="Maquette-3" transform="translate(-1320.000000, -360.000000)" fill-rule="nonzero" fill="#3AE1C6">
            <g id="Progress" transform="translate(1118.000000, 348.000000)">
                <path d="M217,19.5423177 L217,18.4031769 L215.406806,18.4031769 C215.349482,18.0916601 215.266102,17.7899867 215.162456,17.4975777 L216.543726,16.6999672 L215.447048,14.8004671 L214.066646,15.5972091 C213.863118,15.3592287 213.641061,15.1374612 213.40308,14.9336434 L214.200112,13.5532416 L212.300612,12.4565633 L211.503001,13.8378337 C211.210013,13.7341877 210.90834,13.6508077 210.596534,13.5931945 L210.596534,12 L208.403177,12 L208.403177,13.5931945 C208.09166,13.6508077 207.789987,13.7338982 207.497288,13.8375442 L206.699967,12.4565633 L204.800178,13.5532416 L205.59692,14.9333539 C205.358939,15.1371716 205.137172,15.3586497 204.933354,15.5969196 L203.553531,14.8004671 L202.456563,16.7002567 L203.837544,17.4975777 C203.733898,17.7902762 203.650518,18.0919496 203.593194,18.4034664 L202,18.4034664 L202,20.5968231 L203.593194,20.5968231 C203.650808,20.9083399 203.733898,21.2100133 203.837544,21.5030013 L202.456853,22.3000328 L203.553242,24.2001119 L204.933354,23.4033699 C205.137172,23.6413503 205.358939,23.8634074 205.597209,24.0672251 L204.800757,25.4467584 L206.700257,26.5437262 L207.497578,25.1624558 C207.790276,25.2658123 208.09166,25.3494818 208.403177,25.4068055 L208.403177,27 L210.596534,27 L210.596534,25.4068055 C210.90805,25.3494818 211.209724,25.2661018 211.502422,25.1624558 L212.300033,26.5437262 L214.199822,25.4470479 L213.402791,24.0666461 C213.641061,23.8628284 213.862828,23.6410608 214.066646,23.4027909 L215.447048,24.1998224 L216.543726,22.3003223 L215.162456,21.5027118 C215.265812,21.2100133 215.349482,20.9083399 215.406806,20.5968231 L217,20.5968231 L217,19.5423177 Z M209.594937,20.5443038 C209.070567,20.5443038 208.64557,20.119011 208.64557,19.5949367 C208.64557,19.0705667 209.070567,18.6455696 209.594937,18.6455696 C210.119011,18.6455696 210.544304,19.0705667 210.544304,19.5949367 C210.544304,20.119011 210.119011,20.5443038 209.594937,20.5443038 Z" id="Shape"></path>
            </g>
        </g>
    </g>
</svg>