<?xml version="1.0" encoding="UTF-8"?>
<svg width="15px" height="15px" viewBox="0 0 15 15" version="1.1" xmlns="http://www.w3.org/2000/svg" xmlns:xlink="http://www.w3.org/1999/xlink">
    <!-- Generator: Sketch 46.2 (44496) - http://www.bohemiancoding.com/sketch -->
    <title>Shape</title>
    <desc>Created with Sketch.</desc>
    <defs></defs>
    <g id="Page-1" stroke="none" stroke-width="1" fill="none" fill-rule="evenodd">
        <g id="Maquette-3" transform="translate(-1220.000000, -360.000000)" fill-rule="nonzero" fill="#E6B748">
            <g id="Progress" transform="translate(1118.000000, 348.000000)">
                <path d="M117,19.5423177 L117,18.4031769 L115.406806,18.4031769 C115.349482,18.0916601 115.266102,17.7899867 115.162456,17.4975777 L116.543726,16.6999672 L115.447048,14.8004671 L114.066646,15.5972091 C113.863118,15.3592287 113.641061,15.1374612 113.40308,14.9336434 L114.200112,13.5532416 L112.300612,12.4565633 L111.503001,13.8378337 C111.210013,13.7341877 110.90834,13.6508077 110.596534,13.5931945 L110.596534,12 L108.403177,12 L108.403177,13.5931945 C108.09166,13.6508077 107.789987,13.7338982 107.497288,13.8375442 L106.699967,12.4565633 L104.800178,13.5532416 L105.59692,14.9333539 C105.358939,15.1371716 105.137172,15.3586497 104.933354,15.5969196 L103.553531,14.8004671 L102.456563,16.7002567 L103.837544,17.4975777 C103.733898,17.7902762 103.650518,18.0919496 103.593194,18.4034664 L102,18.4034664 L102,20.5968231 L103.593194,20.5968231 C103.650808,20.9083399 103.733898,21.2100133 103.837544,21.5030013 L102.456853,22.3000328 L103.553242,24.2001119 L104.933354,23.4033699 C105.137172,23.6413503 105.358939,23.8634074 105.597209,24.0672251 L104.800757,25.4467584 L106.700257,26.5437262 L107.497578,25.1624558 C107.790276,25.2658123 108.09166,25.3494818 108.403177,25.4068055 L108.403177,27 L110.596534,27 L110.596534,25.4068055 C110.90805,25.3494818 111.209724,25.2661018 111.502422,25.1624558 L112.300033,26.5437262 L114.199822,25.4470479 L113.402791,24.0666461 C113.641061,23.8628284 113.862828,23.6410608 114.066646,23.4027909 L115.447048,24.1998224 L116.543726,22.3003223 L115.162456,21.5027118 C115.265812,21.2100133 115.349482,20.9083399 115.406806,20.5968231 L117,20.5968231 L117,19.5423177 Z M109.594937,20.5443038 C109.070567,20.5443038 108.64557,20.119011 108.64557,19.5949367 C108.64557,19.0705667 109.070567,18.6455696 109.594937,18.6455696 C110.119011,18.6455696 110.544304,19.0705667 110.544304,19.5949367 C110.544304,20.119011 110.119011,20.5443038 109.594937,20.5443038 Z" id="Shape"></path>
            </g>
        </g>
    </g>
</svg>