<svg xmlns="http://www.w3.org/2000/svg" xmlns:xlink="http://www.w3.org/1999/xlink" class="" app-context="doc-2d" x="0px" y="0px" width="1000" height="1000" jvs-fullPath="gdrive/target.svg">
    <title/>
    <desc/>
    <defs/>
    <g id="jvs-guides" transform="matrix(1 0 0 1 0 0)"/>
    <g id="jvs-content" enable-background="new">
    <g transform="matrix(1,0,0,1,0,0)" name="Layer" jvs-layer-color="#fb0094" class="jvs-layer selected">
        <ellipse cx="507.99969482421875" cy="489.99969482421875" rx="250" ry="250" fill="rgb(88,88,88)" stroke="rgb(88,88,88)" stroke-width="50" stroke-linecap="butt" stroke-linejoin="miter" opacity="1" transform="matrix(1 0 0 1 -8.00001 10)" fill-opacity="0" stroke-opacity="1"/>
        <path fill="none" stroke="#000000" stroke-width="NaN" stroke-linecap="butt" stroke-linejoin="miter" opacity="1" d="M NaN NaN L NaN NaN" transform="matrix(NaN NaN NaN NaN 0 0)"/>
        <path fill="rgb(88,88,88)" stroke="rgb(88,88,88)" stroke-width="50" stroke-linecap="butt" stroke-linejoin="miter" opacity="1" d="M 199.99937438964844 -87.59429931640625 L 199.99937438964844 262.4051818847656" transform="matrix(1 0 0 1 300 662.594)" fill-opacity="0" stroke-opacity="1"/>
        <path fill="rgb(88,88,88)" stroke="rgb(88,88,88)" stroke-width="50" stroke-linecap="butt" stroke-linejoin="miter" opacity="1" d="M 66.72667694091797 199.999755859375 L 416.725830078125 199.999755859375" transform="matrix(1 0 0 1 8.27317 300)" fill-opacity="0" stroke-opacity="1"/>
        <path fill="rgb(88,88,88)" stroke="rgb(88,88,88)" stroke-width="50" stroke-linecap="butt" stroke-linejoin="miter" opacity="1" d="M -245.7973175048828 199.99945068359375 L 104.20211029052734 199.99945068359375" transform="matrix(1 0 0 1 820.798 300)" fill-opacity="0" stroke-opacity="1"/>
        <path fill="rgb(88,88,88)" stroke="rgb(88,88,88)" stroke-width="50" stroke-linecap="butt" stroke-linejoin="miter" opacity="1" d="M 495.94287109375 -62.870323181152344 L 495.94287109375 287.1296691894531" transform="matrix(1 0 0 1 4.0571 137.87)" fill-opacity="0" stroke-opacity="1"/>
    </g>
    </g>
</svg>