<?xml version="1.0" encoding="UTF-8"?>
<svg width="52px" height="64px" viewBox="0 0 52 64" version="1.1" xmlns="http://www.w3.org/2000/svg" xmlns:xlink="http://www.w3.org/1999/xlink">
    <!-- Generator: Sketch 46.2 (44496) - http://www.bohemiancoding.com/sketch -->
    <title>Shape</title>
    <desc>Created with Sketch.</desc>
    <defs></defs>
    <g id="Page-1" stroke="none" stroke-width="1" fill="none" fill-rule="evenodd">
        <g id="Corbeille" fill-rule="nonzero" fill="#4A4A4A">
            <path d="M34,2 L34,8 L50,8 C51.1045695,8 52,8.8954305 52,10 L52,14 C52,15.1045695 51.1045695,16 50,16 L2,16 C0.8954305,16 0,15.1045695 0,14 L0,10 C0,8.8954305 0.8954305,8 2,8 L18,8 L18,2 C18,0.8954305 18.8954305,0 20,0 L32,0 C33.1045695,0 34,0.8954305 34,2 Z M10,64 L42,64 C45.3137085,64 48,61.3137085 48,58 L48,22 L4,22 L4,58 C4,61.3137085 6.6862915,64 10,64 Z" id="Shape"></path>
        </g>
    </g>
</svg>