<svg xmlns="http://www.w3.org/2000/svg" data-name="Layer 1" viewBox="0 0 100 125" x="0px" y="0px"><title>07</title><path d="M34.66,63.63l-13.75,7.5a15.73,15.73,0,0,0-8.2,13.82v.31a6.25,6.25,0,0,0,6.24,6.24h62.1a6.25,6.25,0,0,0,6.24-6.24,15.65,15.65,0,0,0-8.7-14.08h0L63.86,63.81a2.24,2.24,0,0,1-1.24-2V57.22c.26-.33.52-.68.77-1a37,37,0,0,0,4.55-8.71,8,8,0,0,0,3.93-6.86V34.43a7.93,7.93,0,0,0-1.54-4.69V26a15.82,15.82,0,0,0-3.68-11.39c-3.53-4-9.13-6.07-16.65-6.07s-13.12,2-16.65,6.07a15.62,15.62,0,0,0-3.68,11.34v3.83a7.93,7.93,0,0,0-1.54,4.69V40.6a7.92,7.92,0,0,0,2.51,5.8,34,34,0,0,0,5.2,10.76v4.49A2.24,2.24,0,0,1,34.66,63.63Zm4.76-8.35a30.16,30.16,0,0,1-5.06-10.47,2,2,0,0,0-.7-1.09,4,4,0,0,1-1.53-3.12V34.43a4,4,0,0,1,1-2.65,2,2,0,0,0,.51-1.34V25.81a2,2,0,0,0,0-.23,11.59,11.59,0,0,1,2.7-8.37c2.74-3.12,7.33-4.7,13.64-4.7s10.91,1.58,13.64,4.7a11.8,11.8,0,0,1,2.7,8.43,2,2,0,0,0,0,.22v4.59a2,2,0,0,0,.51,1.34,4,4,0,0,1,1,2.65V40.6a3.92,3.92,0,0,1-2.37,3.62,2,2,0,0,0-1.08,1.18,33.1,33.1,0,0,1-4.29,8.46c-.36.51-.72,1-1.05,1.39a2,2,0,0,0-.46,1.27V61.8a6.22,6.22,0,0,0,3.45,5.59L76.8,74.75a11.68,11.68,0,0,1,6.49,10.5,2.24,2.24,0,0,1-2.24,2.24H18.95a2.24,2.24,0,0,1-2.24-2.24v-.31a11.73,11.73,0,0,1,6.12-10.3l13.75-7.5a6.24,6.24,0,0,0,3.26-5.48V56.5A2,2,0,0,0,39.42,55.28Z"/></svg>