<svg width="456.793" height="456.793" xmlns="http://www.w3.org/2000/svg" xmlns:svg="http://www.w3.org/2000/svg">
    <g>
        <g id="svg_1">
            <g id="svg_2">
                <path id="svg_3" d="m448.947,213.754c-0.924,-1.168 -23.057,-28.933 -61,-56.81c-50.707,-37.253 -105.879,-56.944 -159.551,-56.944c-53.673,0 -108.845,19.691 -159.551,56.944c-37.944,27.876 -60.077,55.642 -61,56.81l-7.845,9.922l7.845,9.923c0.923,1.168 23.056,28.934 61,56.811c50.707,37.252 105.878,56.943 159.551,56.943c53.672,0 108.844,-19.691 159.551,-56.943c37.943,-27.877 60.076,-55.643 61,-56.811l7.846,-9.923l-7.846,-9.922zm-80.674,51.4c-31.354,22.9 -81.072,50.199 -139.877,50.199s-108.524,-27.299 -139.877,-50.199c-21.516,-15.715 -37.641,-31.609 -46.834,-41.478c9.197,-9.872 25.32,-25.764 46.833,-41.478c31.354,-22.901 81.072,-50.2 139.877,-50.2c58.804,0 108.525,27.299 139.876,50.2c21.516,15.715 37.641,31.609 46.834,41.477c-9.195,9.873 -25.32,25.766 -46.832,41.479z" fill="#585858"/>
            </g>
        </g>
        <ellipse id="svg_4" fill="#585858" cx="225" cy="225" rx="60" ry="60"/>
        <ellipse id="svg_5" fill="#ffffff" cx="205" cy="205" rx="25" ry="25"/>
    </g>
</svg>